<svg xmlns="http://www.w3.org/2000/svg" viewBox="0 0 524.54 510.58"><defs><style>.cls-1{fill:#fff;}.cls-2{fill:#deaecc;}.cls-3{fill:#da9c9a;}</style></defs><title>circuloflor</title><g id="Capa_2" data-name="Capa 2"><g id="Capa_1-2" data-name="Capa 1"><path class="cls-1" d="M291.13,485.15A12.34,12.34,0,1,1,276,476.49,12.36,12.36,0,0,1,291.13,485.15Z"/><path class="cls-1" d="M486.37,144.94a12.34,12.34,0,1,1-15.16-8.65A12.33,12.33,0,0,1,486.37,144.94Z"/><path class="cls-1" d="M98.38,104.76A12.34,12.34,0,1,1,83.22,96.1,12.34,12.34,0,0,1,98.38,104.76Z"/><path class="cls-1" d="M147.51,77.18a128.74,128.74,0,0,0-10.43-23.1c-3.15-5.54-6.36-11-9.2-16.72a18.8,18.8,0,0,1-1.15-2.62,2.37,2.37,0,0,1,1-2.84,2.8,2.8,0,0,1,3.09.48,14.34,14.34,0,0,1,1.79,2.26,197.93,197.93,0,0,1,13,22.62,157.92,157.92,0,0,1,9.43,22,18.28,18.28,0,0,1,1,4.66l.07,1.41c-.25,4.47-3.9,6.49-8.12,4.36a45,45,0,0,1-9.69-7.14c-9.45-8.44-17.22-18.12-24.69-28.16a36.21,36.21,0,0,1-2.54-3.94,2.81,2.81,0,0,1,.21-3.71,3.36,3.36,0,0,1,3.87-.39,12.21,12.21,0,0,1,2.83,2.11c3.2,3.24,6.23,6.6,9.25,10,5.67,6.5,11.33,13.08,17.57,19.1a9.41,9.41,0,0,0,3.1,2.74A5.53,5.53,0,0,0,147.51,77.18Z"/><path class="cls-1" d="M150.13,41.29a5.76,5.76,0,0,1-7.74-2.52,6,6,0,0,1,2.34-7.8c2.34-1.29,5.87.12,7.43,2.93A5.35,5.35,0,0,1,150.13,41.29Zm14,18.94c.75,1.34,1.4,2.66,2.09,4a3,3,0,0,1-1.12,4.21,3.73,3.73,0,0,1-2.44.28,4.81,4.81,0,0,1-2.58-1.63c-4-4.83-7.66-9.83-9.29-16a11,11,0,0,1-.58-3.66c.12-1.44.58-2.69,2-3.26a3.57,3.57,0,0,1,3.94,1,21.71,21.71,0,0,1,3.14,5C161.18,53.52,162.47,56.94,164.13,60.23Z"/><path class="cls-1" d="M163.64,43.23c.49-3.4,1.85-6,4.65-7.47a3.43,3.43,0,0,1,3.76.47,3.11,3.11,0,0,1,.83,4.34c-1.66,2.16-1.82,6.74-.55,10.13C173.79,55,178,56.4,180.71,53a1.93,1.93,0,0,1,2.76-.24c1,.63,1.36,1.5,1.23,3a6,6,0,0,1-2.87,4.64,15.85,15.85,0,0,1-6.23,2.3c-3.25.47-5.8-1.22-7.81-4.13C164.92,54.43,162.91,48.5,163.64,43.23Z"/><path class="cls-1" d="M175.79,21.49c1.34-1,1.4-1,1-2.58-.63-2.62-1.38-5.2-2.07-7.8a27.07,27.07,0,0,1-.58-3.28,3.19,3.19,0,0,1,1.66-3.55,2.68,2.68,0,0,1,3.33,1,13.13,13.13,0,0,1,1.82,3.53c.73,1.94,1.39,3.91,2.1,5.79.57,1.71.65,1.75,2.24,1,.87-.32,1.66-.69,2.48-1a2.55,2.55,0,0,1,3.13,1.11,3,3,0,0,1-.93,3.43,30.79,30.79,0,0,1-2.82,2.2c-1.36,1.15-1.46,1.26-.93,2.85.84,2.82,1.75,5.63,2.76,8.32,1.29,3.44,2.65,6.86,3.62,10.43.83,3,2,5.83,2.87,8.78a3.15,3.15,0,0,1-1.74,3.94c-2.51.94-3.84-1.49-4.7-3.38-1.69-3.37-3.4-6.8-4.9-10.24a92.61,92.61,0,0,1-3.83-10.78,11.46,11.46,0,0,0-.39-1.42c-.39-1.22-.61-1.63-1.18-1.42a8.54,8.54,0,0,0-1.16.72,8.29,8.29,0,0,1-2.74,1.46,3.13,3.13,0,0,1-3.85-2.27C170.37,25.52,173.74,22.9,175.79,21.49Z"/><path class="cls-1" d="M198.34,29.09c.89-2.27,2.7-3.75,4.3-5.46a2.43,2.43,0,0,1,2-.65A8.53,8.53,0,0,1,208,24a30,30,0,0,1,6.41,4.72c3.46,3.4,4.36,10,2.22,15a12.28,12.28,0,0,1-4.86,5.68c-5.63,3.68-11.63,1.14-14.05-4.71a13.71,13.71,0,0,1-.44-1.55A22.12,22.12,0,0,1,198.34,29.09ZM205,42.29c.77,1.52,1.57,1.64,2.85.51a5.19,5.19,0,0,0,1.6-3.44,9.83,9.83,0,0,0-3.24-8.26c-.78-.82-1.24-.69-1.48.42a27.81,27.81,0,0,0-.13,9.63A7.11,7.11,0,0,0,205,42.29Z"/><path class="cls-1" d="M231.33,20.35a21.59,21.59,0,0,1,3.18-3.72,4.5,4.5,0,0,1,3.69-1.49,2.42,2.42,0,0,1,2.16,1.61,2.26,2.26,0,0,1-.68,2.42,35.42,35.42,0,0,0-8.77,18.67,22.65,22.65,0,0,0-.42,4.89,2.43,2.43,0,0,1-1.73,2.65,2.7,2.7,0,0,1-3.24-1.56,33,33,0,0,1-3.07-9.53c-.54-3.3-1-6.62-1.24-10-.23-2.2-.08-5,2.53-5.57a3.36,3.36,0,0,1,3.41,1.33c.84.95.86,2.3,1.88,3.55Z"/><path class="cls-1" d="M247.17,11.63a5.76,5.76,0,0,1-6.07-5.42A6,6,0,0,1,246.37,0C249-.23,251.7,2.48,252,5.67A5.36,5.36,0,0,1,247.17,11.63Zm5.22,23c.15,1.53.22,3,.29,4.54A3,3,0,0,1,250,42.54a3.85,3.85,0,0,1-2.35-.72,4.89,4.89,0,0,1-1.71-2.53c-1.7-6-3.07-12.08-2.1-18.35a10.72,10.72,0,0,1,.94-3.58c.69-1.27,1.61-2.23,3.16-2.17a3.56,3.56,0,0,1,3.19,2.52,21.55,21.55,0,0,1,.87,5.83C252.39,27.27,252.19,30.92,252.39,34.59Z"/><path class="cls-1" d="M269.29,35.94a13.71,13.71,0,0,1-4.87,4.7c-3.45,2-6.54,1.17-7.86-2.08s-1.05-6.88.16-10.58a30.52,30.52,0,0,1,4.67-9,13.27,13.27,0,0,1,6.21-4.78,5.87,5.87,0,0,1,5.43.38,4.12,4.12,0,0,0,2.22.63,2.88,2.88,0,0,1,3.38,2.49,12.34,12.34,0,0,1,.25,3.2,34.27,34.27,0,0,0,.23,5.82c.4,3.61.12,7.29.31,10.9,0,.34-.05.67-.05,1a3.2,3.2,0,0,1-2,2.91,2.82,2.82,0,0,1-3.35-.62,4,4,0,0,1-1-2.19c-.29-1.33-.45-2.6-.73-3.94-.15-.66,0-1.47-.91-2C270.66,33.84,270,34.93,269.29,35.94Zm-5.17-1.32c3.48-3.8,4.95-8.31,6.68-12.75.26-.81-.48-1.2-1.28-.72a6.53,6.53,0,0,0-1.84,2,34.89,34.89,0,0,0-4.38,10.17,1.65,1.65,0,0,0,.16,1.67A2.66,2.66,0,0,0,264.12,34.62Z"/><path class="cls-1" d="M327,53.6A21.78,21.78,0,0,1,311.68,58a13.57,13.57,0,0,1-2.88-.31c-2.91-.78-3.73-3.23-1.79-5.47a2.54,2.54,0,0,0,.69-1.56A117.34,117.34,0,0,1,312.79,27a88,88,0,0,1,4.32-11.92l.51-1c.21-.64,0-1-.76-.92-2.27.38-4.62.74-6.21,2.65a2.3,2.3,0,0,1-2.72.83,2.72,2.72,0,0,1-1.84-2.54,5,5,0,0,1,1.35-3.54,10.47,10.47,0,0,1,4.74-3.11c6.14-2,12.1-1.68,17.78,1.72a17.59,17.59,0,0,1,5.56,5.5,23.66,23.66,0,0,1,3.72,19.48A34.67,34.67,0,0,1,327,53.6Zm-10.87-5.31c-.28,1.24,0,1.51,1.31,1.18a13,13,0,0,0,5.16-2.54,30.18,30.18,0,0,0,9.61-14.1,16.71,16.71,0,0,0-2.38-15.41,9.73,9.73,0,0,0-3.55-3.12c-1.18-.54-1.34-.44-1.6.73-.43,1.62-.75,3.33-1.26,5-1.74,5.64-3.23,11.34-4.89,17.55Z"/><path class="cls-1" d="M353.53,54c-2.26,1.55-5.13,2.8-7.8,1.75-3.18-1.25-4.16-5.15-4-8.24A32,32,0,0,1,347.71,31,8.94,8.94,0,0,1,349,29.61c1.42-1.24,2.81-1.49,4.19-.8,3.07,1.35,1.47,5.61.58,7.85l-2.24,5.16c-.49,1.24-3.25,7.92-1.63,8.55,2.92,1.15,7.72-5.95,8.63-7.89l2.33-4.84c1.13-2.14,3.09-5.11,5.95-4a3.6,3.6,0,0,1,2,2.16,4.86,4.86,0,0,1-.18,3.74c-1.65,3.66-2,5-3.44,8.78-1.35,3.42-2.63,6.87-3.67,10.42a17.65,17.65,0,0,1-.67,1.89,2.62,2.62,0,0,1-3.41,1.54,3.56,3.56,0,0,1-2-3.66c0-1.3.16-2.6.29-3.85,0-.63.28-1.25-.11-1.91A7.52,7.52,0,0,0,353.53,54Z"/><path class="cls-1" d="M379.68,48.05a23.55,23.55,0,0,1,5.89-3.21c4-1.44,6.85.4,7,4.42a12.06,12.06,0,0,1-1.1,4.87c-2.31,5.59-5.69,10.62-9,15.58a8.77,8.77,0,0,1-1.24,1.46,3,3,0,0,1-3.43.74,2.71,2.71,0,0,1-1.32-3.07,13.88,13.88,0,0,1,1.39-3.43c1.6-2.7,3.09-5.47,4.87-8.09A60,60,0,0,0,385.55,52c.1-.33.35-.65,0-1.05-.78-.11-1.24.48-1.79.79a58.15,58.15,0,0,0-8.44,7.09l-4.67,4.47a13.32,13.32,0,0,1-1.42,1.22,3,3,0,0,1-3.51.32,2.59,2.59,0,0,1-1.22-3.09,36,36,0,0,1,1.53-4.42,180.38,180.38,0,0,1,8.25-16.22,9.91,9.91,0,0,1,.78-1.17,2.82,2.82,0,0,1,2.61-1,2.49,2.49,0,0,1,2.12,2,4.91,4.91,0,0,1-.2,2.93c-.61,1.42-1.19,2.93-1.74,4.38-.16.29-.38.55-.09,1C378.6,49.07,379.06,48.48,379.68,48.05Z"/><path class="cls-1" d="M399.92,56.74c3.17-1.33,6.12-1.51,8.8.14a3.43,3.43,0,0,1,1.53,3.46A3.1,3.1,0,0,1,407,63.29c-2.71-.3-6.71,1.91-9,4.75-2.9,3.45-2,7.8,2.33,8.37A1.92,1.92,0,0,1,402,78.65a2.73,2.73,0,0,1-1.91,2.58,5.93,5.93,0,0,1-5.45-.06A15.76,15.76,0,0,1,389.41,77c-2.07-2.54-1.94-5.6-.48-8.82C391,63.61,395,58.83,399.92,56.74Z"/><path class="cls-1" d="M414.83,89.47a13.69,13.69,0,0,1-6.76.33c-3.91-.76-5.7-3.41-4.56-6.74s3.74-5.87,7.08-7.86a30.93,30.93,0,0,1,9.46-3.74,13.41,13.41,0,0,1,7.83.48,6,6,0,0,1,3.84,3.86A4.07,4.07,0,0,0,433,77.73a2.89,2.89,0,0,1,.92,4.11A13.28,13.28,0,0,1,432,84.42,33.27,33.27,0,0,0,428.31,89c-2.07,3-4.7,5.57-6.93,8.42-.21.25-.48.46-.7.72a3.22,3.22,0,0,1-3.39.9,2.81,2.81,0,0,1-2.12-2.67,3.91,3.91,0,0,1,.66-2.33c.66-1.2,1.37-2.25,2-3.45.33-.6.95-1.12.68-2.14C417.24,88.79,416,89.18,414.83,89.47Zm-3-4.4c5.13-.57,9.19-3,13.42-5.21.73-.44.42-1.22-.49-1.38a6.4,6.4,0,0,0-2.68.27,35,35,0,0,0-10,4.78c-.45.32-1,.65-1,1.36A3,3,0,0,0,411.8,85.07Z"/><path class="cls-1" d="M441.61,94.53a24,24,0,0,1,6.62-1.15c4.22-.1,6.35,2.57,5.18,6.42a11.86,11.86,0,0,1-2.6,4.26c-4,4.56-8.79,8.23-13.55,11.86a8.42,8.42,0,0,1-1.64,1,3,3,0,0,1-3.49-.4,2.7,2.7,0,0,1-.27-3.32,13.69,13.69,0,0,1,2.41-2.81c2.39-2,4.69-4.2,7.21-6.1,1.56-1.28,3-2.74,4.45-4.16.19-.28.53-.51.36-1-.7-.35-1.33.06-2,.18a59,59,0,0,0-10.26,4l-5.86,2.74a13.06,13.06,0,0,1-1.73.7,3,3,0,0,1-3.43-.82,2.59,2.59,0,0,1-.17-3.32,34.64,34.64,0,0,1,2.87-3.69,179.8,179.8,0,0,1,13-12.73,10.28,10.28,0,0,1,1.11-.86,2.83,2.83,0,0,1,2.8-.15,2.51,2.51,0,0,1,1.38,2.56,5,5,0,0,1-1.13,2.71c-1,1.15-2.06,2.39-3.05,3.59-.25.23-.54.41-.41.93A4.16,4.16,0,0,0,441.61,94.53Z"/><path class="cls-1" d="M473.41,217.05a16.9,16.9,0,0,1-4.7-6.4,10.61,10.61,0,0,1,2-10.82,19,19,0,0,1,10.86-6.48c9.94-2.15,19.65-.53,29.05,3.62A25.07,25.07,0,0,1,520.9,205c1.65,2.43,2.59,5,1.94,7.86a7.12,7.12,0,0,1-2.25,3.95,2.7,2.7,0,0,1-3,.75,2.4,2.4,0,0,1-1.57-2.66c.41-3.59-1.66-5.72-4.72-7.42a39.13,39.13,0,0,0-7.57-3.07,55.13,55.13,0,0,0-18.14-1.87,18.14,18.14,0,0,0-7.33,2.17c-2.92,1.63-3.17,3.81-.8,6.36a16.74,16.74,0,0,0,8.33,4.6,6.67,6.67,0,0,0,2.32-.05c3-.35,5.91-.88,9-.35a16.73,16.73,0,0,1,2.36.42,4.06,4.06,0,0,1,3.08,3.21,3.72,3.72,0,0,1-3,3.37,22.22,22.22,0,0,1-4.26.56,3.82,3.82,0,0,1-1-.05c-4.42-.42-8.38.9-12.36,2.09-3.47,1-6.81,2.32-10.18,3.5a17.06,17.06,0,0,1-5.7,1.18,3.78,3.78,0,0,1-3.79-1.88,3.34,3.34,0,0,1,.87-4.25,10.78,10.78,0,0,1,3.76-2.17c1.85-.63,3.79-1.14,5.71-1.72a7.13,7.13,0,0,0,2.2-.92C474.68,217.79,473.92,217.48,473.41,217.05Z"/><path class="cls-1" d="M510.68,237.23a21.76,21.76,0,0,1,3.49,3.43,4.48,4.48,0,0,1,1.23,3.78,2.41,2.41,0,0,1-1.75,2.05,2.27,2.27,0,0,1-2.37-.85,35.49,35.49,0,0,0-18-10,22.2,22.2,0,0,0-4.84-.75,2.46,2.46,0,0,1-2.54-1.91,2.74,2.74,0,0,1,1.79-3.13,32.84,32.84,0,0,1,9.72-2.4q5-.48,10-.55c2.21-.08,5,.26,5.39,2.91a3.38,3.38,0,0,1-1.57,3.31c-1,.77-2.35.69-3.68,1.63Z"/><path class="cls-1" d="M493,258.23a13.8,13.8,0,0,1-4.7-4.87c-2-3.45-1.17-6.54,2.08-7.86s6.88-1.05,10.58.16a30.52,30.52,0,0,1,9,4.67,13.35,13.35,0,0,1,4.79,6.21,5.93,5.93,0,0,1-.38,5.43,4,4,0,0,0-.64,2.22,2.88,2.88,0,0,1-2.49,3.38,12.78,12.78,0,0,1-3.2.26,33.31,33.31,0,0,0-5.82.22c-3.61.4-7.29.12-10.9.31-.34,0-.67-.05-1-.05a3.2,3.2,0,0,1-2.91-2,2.82,2.82,0,0,1,.62-3.35,4,4,0,0,1,2.19-1c1.33-.29,2.6-.45,3.94-.73.66-.15,1.47,0,2.06-.91C495.11,259.6,494,259,493,258.23Zm1.32-5.17c3.8,3.48,8.31,4.95,12.76,6.69.8.25,1.19-.49.71-1.29a6.42,6.42,0,0,0-2-1.84,34.89,34.89,0,0,0-10.17-4.38,1.65,1.65,0,0,0-1.67.16A3.06,3.06,0,0,0,494.33,253.06Z"/><path class="cls-1" d="M507.62,285.46a10.93,10.93,0,0,1,4,4.85,5.43,5.43,0,0,1-1.19,6.06,6.26,6.26,0,0,1-2.71,1.83c-4.91,1.64-10,2-15.07-.17a11.51,11.51,0,0,1-6.89-10,14.09,14.09,0,0,1,.46-4.45c.44-1.43.32-1.58-1.24-2a86.89,86.89,0,0,0-12.17-2.46,27.47,27.47,0,0,1-3.38-.47,2.72,2.72,0,0,1-2.37-2.16,2.41,2.41,0,0,1,1.74-2.69,13.45,13.45,0,0,1,2.47-.45,80.17,80.17,0,0,1,16.25-.09,130.19,130.19,0,0,1,14.35,1.64c2.25.4,4.34.92,6.49,1.52a10.8,10.8,0,0,1,2.37,1.08,3.44,3.44,0,0,1,1.89,3.87,3.4,3.4,0,0,1-3.18,2.45c-.62.06-1.28,0-1.89,0s-1.11-.27-1.83.11C506.16,284.75,507,285,507.62,285.46Zm-3.7,8.45c2.57-.64,2.91-1.81,1-3.66a11.44,11.44,0,0,0-1.71-1.41,40.31,40.31,0,0,0-8.66-4.27c-1.61-.59-2.06-.18-1.79,1.47a8.43,8.43,0,0,0,.37,1.4c1.53,3.61,4.55,5.39,8.06,6.48A5.37,5.37,0,0,0,503.92,293.91Z"/><path class="cls-1" d="M503.4,316.92a10.69,10.69,0,0,1,2,4.5,6.11,6.11,0,0,1-4.36,7.31,11.6,11.6,0,0,1-4.46.45,77.15,77.15,0,0,1-11-1.63,38.78,38.78,0,0,0-4.81-.88,12.52,12.52,0,0,1-2.2-.57,2.33,2.33,0,0,1-1.79-2.18,2.65,2.65,0,0,1,1.39-2.75,6.16,6.16,0,0,1,3.21-.7,61.25,61.25,0,0,1,11.64.69c.85.15,1.73.24,2.61.33.53.06,1.23.31,1.52-.3s-.28-1-.59-1.47a44.16,44.16,0,0,0-9.34-8.6,18.5,18.5,0,0,1-3.13-2.59,3.7,3.7,0,0,1-.94-4.18,3.58,3.58,0,0,1,3.44-2.09,18.54,18.54,0,0,1,4.33.35A130.48,130.48,0,0,1,508.76,307a110.66,110.66,0,0,1,11.89,4,13.2,13.2,0,0,1,2.49,1.33,2.94,2.94,0,0,1,1.33,3.17,3.42,3.42,0,0,1-2.75,2.41,6.94,6.94,0,0,1-3.65-.59c-4.93-1.53-10-2.83-15-4.25a4.5,4.5,0,0,0-2.69-.27C501.52,314.3,502.5,315.58,503.4,316.92Z"/><path class="cls-1" d="M480.58,338.63c-1.44-.52-2.81-1.08-4.23-1.66a3,3,0,0,1-1.94-3.9,3.81,3.81,0,0,1,1.65-1.82,4.82,4.82,0,0,1,3-.48c6.18,1,12.24,2.34,17.51,5.86a10.67,10.67,0,0,1,2.85,2.38c.86,1.16,1.34,2.4.63,3.78a3.57,3.57,0,0,1-3.64,1.82,21.54,21.54,0,0,1-5.65-1.68C487.22,341.73,484,340,480.58,338.63Zm23,5a5.76,5.76,0,0,1,7.48-3.21,6,6,0,0,1,3.38,7.4c-.9,2.52-4.49,3.79-7.51,2.7A5.35,5.35,0,0,1,503.6,343.63Z"/><path class="cls-1" d="M492.18,351.07c1.88,2.87,2.58,5.75,1.43,8.68a3.41,3.41,0,0,1-3.13,2.12,3.09,3.09,0,0,1-3.48-2.71c-.19-2.72-3.09-6.26-6.28-8-3.91-2.24-8-.55-7.82,3.79,0,1.25-.81,1.83-1.91,2s-2-.23-2.88-1.42a5.91,5.91,0,0,1-.92-5.38,15.89,15.89,0,0,1,3.17-5.84c2.13-2.49,5.16-2.91,8.59-2C483.83,343.5,489.25,346.62,492.18,351.07Z"/><path class="cls-1" d="M435.61,393.28a21.78,21.78,0,0,1,2.1-15.79,13.41,13.41,0,0,1,1.42-2.52c1.89-2.35,4.46-2.13,5.74.55a2.52,2.52,0,0,0,1.15,1.25,116.47,116.47,0,0,1,19.61,14.1,88.21,88.21,0,0,1,9.21,8.72l.76.88c.5.45,1,.38,1.14-.32.57-2.24,1.17-4.53.06-6.76a2.29,2.29,0,0,1,.32-2.82,2.72,2.72,0,0,1,3.06-.67,5,5,0,0,1,2.71,2.64,10.54,10.54,0,0,1,1,5.6c-.63,6.42-3.29,11.76-8.68,15.61a17.63,17.63,0,0,1-7.26,2.9,23.63,23.63,0,0,1-19.35-4.37A34.72,34.72,0,0,1,435.61,393.28Zm9.22-7.85c-1-.75-1.39-.6-1.61.73a13,13,0,0,0,.27,5.75,30.16,30.16,0,0,0,9.08,14.44,16.76,16.76,0,0,0,15.08,4,9.71,9.71,0,0,0,4.28-2c1-.87.94-1.06,0-1.77-1.31-1-2.76-2-4.08-3.14-4.48-3.86-9.11-7.49-14.14-11.5Z"/><path class="cls-1" d="M425.42,421.3a2.17,2.17,0,0,1-2.88,1,2.94,2.94,0,0,1-1.78-3,10.22,10.22,0,0,1,2.25-6.51c6.17-7.34,15.7-5.6,20.75,2.82,2.89,4.79,3.46,9.85,1.05,14.79a6.06,6.06,0,0,1-1.26,1.77,6.19,6.19,0,0,1-8.75.23,9.74,9.74,0,0,1-3-7.3,15.81,15.81,0,0,1,1.68-6.88c.6-1.28.36-1.71-.92-1.93-2.27-.35-3.91,1.32-5.36,2.8A12.94,12.94,0,0,0,425.42,421.3Zm12.39,4.36a.7.7,0,0,0,.57.66c.33,0,.47-.19.61-.53a3.9,3.9,0,0,0-.32-3.3A3.38,3.38,0,0,0,437.81,425.66Z"/><path class="cls-1" d="M414.24,416.79a3.46,3.46,0,0,1,3.17,4.93,15.86,15.86,0,0,0-1,7.65,3.21,3.21,0,0,0,1.85,2.73,21.3,21.3,0,0,0,4,1.5,12.9,12.9,0,0,1,5,2.58,8.16,8.16,0,0,1,.52,11.78,4,4,0,0,1-4.47,1.12,2.47,2.47,0,0,1-1.68-3.05,4.21,4.21,0,0,1,.22-.78c.65-2.56-.07-4.05-2.6-5-1.52-.56-3.14-1-4.71-1.56a14,14,0,0,1-4.31-2.23,8.52,8.52,0,0,1-3.71-8,21,21,0,0,1,2.82-8.72,5.36,5.36,0,0,1,2.48-2.34A4.12,4.12,0,0,1,414.24,416.79Z"/><path class="cls-1" d="M400.61,442.46c-.91-1.24-1.73-2.46-2.59-3.74a3,3,0,0,1,.55-4.32,3.8,3.8,0,0,1,2.39-.59,4.87,4.87,0,0,1,2.77,1.27c4.57,4.28,8.88,8.75,11.29,14.61a10.76,10.76,0,0,1,1.05,3.56c.07,1.44-.22,2.74-1.58,3.49a3.54,3.54,0,0,1-4-.51,21.48,21.48,0,0,1-3.77-4.54C404.41,448.72,402.69,445.5,400.61,442.46Zm16.35,17a5.76,5.76,0,0,1,8,1.49,6,6,0,0,1-1.31,8c-2.15,1.59-5.83.65-7.74-1.93A5.35,5.35,0,0,1,417,459.41Z"/><path class="cls-1" d="M385.33,448.07a10.67,10.67,0,0,1,1.14-4.1c1.56-3.18,4.34-4.29,7.14-3a8.15,8.15,0,0,1,3.44,3,30.76,30.76,0,0,1,4,14.76,11,11,0,0,1-2,6.33,4.55,4.55,0,0,1-3.28,2.2,2.61,2.61,0,0,0-1.77,1,2.54,2.54,0,0,1-3.51.45,7.63,7.63,0,0,1-1.58-1.53,169.5,169.5,0,0,1-10.49-14.27,30.19,30.19,0,0,1-4.19-11.5,14.35,14.35,0,0,1,9-15.89,14.87,14.87,0,0,1,8.65-.67,3.48,3.48,0,0,1,2.53,1.66,2.76,2.76,0,0,1,.06,2.88,2.1,2.1,0,0,1-2.17,1.19c-2.4-.31-4.77.46-7.11,1.13-2.71.83-4.26,2.9-4.79,5.83a15.71,15.71,0,0,0,.41,7.24c.65,2,2.55,6,4.21,7C385.39,451,385.25,448.83,385.33,448.07Zm7.36,12.44a1.14,1.14,0,0,0,1.53.55c.64-.25.57-1,.55-1.53a38,38,0,0,0-2.62-11.14,2.25,2.25,0,0,0-1.59-1.53C389,449.8,391.42,457.2,392.69,460.51Z"/><path class="cls-1" d="M375.15,472.48a23.8,23.8,0,0,1-.89,6.65c-1.17,4.05-4.36,5.29-7.68,3a12.13,12.13,0,0,1-3.29-3.76c-3.14-5.17-5.2-10.86-7.24-16.49a7.85,7.85,0,0,1-.44-1.86,3,3,0,0,1,1.42-3.21,2.7,2.7,0,0,1,3.25.74,13.36,13.36,0,0,1,2,3.14c1.24,2.9,2.6,5.73,3.65,8.71.75,1.87,1.71,3.71,2.64,5.49.2.27.31.67.82.64.55-.56.35-1.28.42-1.9a57.54,57.54,0,0,0-.74-11l-.85-6.42a13.17,13.17,0,0,1-.15-1.85,3,3,0,0,1,1.81-3,2.59,2.59,0,0,1,3.22.84,36.55,36.55,0,0,1,2.66,3.84c3.08,5.2,5.66,10.71,8.23,16.23a11.7,11.7,0,0,1,.49,1.33,2.83,2.83,0,0,1-.71,2.71,2.51,2.51,0,0,1-2.85.55,4.9,4.9,0,0,1-2.24-1.89c-.79-1.33-1.66-2.69-2.51-4-.14-.3-.23-.63-.77-.67A4.15,4.15,0,0,0,375.15,472.48Z"/><path class="cls-1" d="M337.49,473.49a2.17,2.17,0,0,1-3-.36,2.93,2.93,0,0,1-.28-3.44,10.22,10.22,0,0,1,4.9-4.84c8.78-3.85,16.55,1.93,17.36,11.72.46,5.58-1.27,10.36-5.62,13.73a6.39,6.39,0,0,1-9.85-2.65,9.72,9.72,0,0,1,.58-7.85,15.91,15.91,0,0,1,4.55-5.43c1.11-.88,1.08-1.37,0-2.13-1.88-1.33-4.09-.56-6.05.13A13.08,13.08,0,0,0,337.49,473.49Zm9.17,9.4a.72.72,0,0,0,.23.85c.27.18.5,0,.78-.21a4,4,0,0,0,1.18-3.1A3.39,3.39,0,0,0,346.66,482.89Z"/><path class="cls-1" d="M323.71,494.9a20.86,20.86,0,0,1-2.93,3.92,4.45,4.45,0,0,1-3.58,1.72,2.44,2.44,0,0,1-2.27-1.46,2.27,2.27,0,0,1,.53-2.46,35.51,35.51,0,0,0,7.55-19.2,22.88,22.88,0,0,0,.09-4.9,2.46,2.46,0,0,1,1.55-2.77A2.73,2.73,0,0,1,328,471.1a32.67,32.67,0,0,1,3.68,9.31q1.14,4.89,1.89,9.87c.37,2.18.41,5-2.17,5.72a3.37,3.37,0,0,1-3.49-1.11c-.89-.89-1-2.24-2.1-3.43Z"/><path class="cls-1" d="M204.07,509.07a3.39,3.39,0,0,1-2.37-2.41,2.44,2.44,0,0,1,2.7-3.13,44.15,44.15,0,0,0,8.88-.33c1.4-.12,1.47-.17,1.83-1.54,1.29-4.58,2.51-9.11,3.74-13.7a6.06,6.06,0,0,0,.22-1c.16-.79-.12-1.05-1-1l-3.46.23a8.35,8.35,0,0,1-2.86-.39,2.69,2.69,0,0,1-1.93-2.52,2.56,2.56,0,0,1,2-2.52c2.48-.78,5.05-1.61,7.57-2.24a2.56,2.56,0,0,0,2.21-2.41c.62-4,2-7.78,2.57-11.7.09-.73.16-1.4.18-2.15a3.29,3.29,0,0,1,2.78-3.18,3,3,0,0,1,3.23,2.18,9.26,9.26,0,0,1,.34,4c-.16,3-.44,6.06-.66,9.09-.06.94,0,1.57,1.08,2,1.94.88,2.22,2.79.82,4.61a7.82,7.82,0,0,1-2.67,2,3.65,3.65,0,0,0-1.9,2.27c-1.52,5.28-3.26,10.39-5.22,15.51l-.35,1c-.31.83,0,1.11.87,1.07l4.22-.21a4.48,4.48,0,0,1,2.75.57c1.83,1.07,1.8,3.18-.08,4.29a7.81,7.81,0,0,1-1.88.84,50.37,50.37,0,0,1-15.11,2.32,27.11,27.11,0,0,1-4.31-.63C206.55,509.59,205.3,509.39,204.07,509.07Z"/><path class="cls-1" d="M191.07,487.81a21.62,21.62,0,0,1-4.55,1.78,4.49,4.49,0,0,1-4-.42,2.45,2.45,0,0,1-1.15-2.44,2.24,2.24,0,0,1,1.74-1.81,35.54,35.54,0,0,0,16.54-12.34,22.91,22.91,0,0,0,2.67-4.12,2.43,2.43,0,0,1,2.77-1.53,2.72,2.72,0,0,1,2.13,2.91,33,33,0,0,1-1.78,9.85q-1.62,4.76-3.6,9.38c-.84,2.05-2.29,4.45-4.86,3.72a3.38,3.38,0,0,1-2.38-2.78c-.29-1.23.33-2.44,0-4Z"/><path class="cls-1" d="M179.15,482.27c-2.13,1.19-4.47,1.19-6.79,1.48a2.38,2.38,0,0,1-2-.79,8.25,8.25,0,0,1-1.95-2.9,29.71,29.71,0,0,1-2-7.71c-.52-4.83,3-10.52,7.81-13a12.42,12.42,0,0,1,7.36-1.31c6.69.74,9.71,6.51,7.87,12.57a14.83,14.83,0,0,1-.64,1.47A22.21,22.21,0,0,1,179.15,482.27Zm3.24-14.43c.36-1.67-.18-2.27-1.88-2.21a5.18,5.18,0,0,0-3.42,1.65,9.82,9.82,0,0,0-2.75,8.43c.09,1.14.52,1.33,1.42.62A27.83,27.83,0,0,0,182,469,8.14,8.14,0,0,0,182.39,467.84Z"/><path class="cls-1" d="M153.73,466.78a24,24,0,0,1-6,3c-4,1.32-6.82-.61-6.83-4.63a12.1,12.1,0,0,1,1.25-4.84c2.48-5.51,6-10.43,9.5-15.29a8.34,8.34,0,0,1,1.28-1.42,3.05,3.05,0,0,1,3.46-.64,2.69,2.69,0,0,1,1.22,3.1,13.26,13.26,0,0,1-1.49,3.39c-1.68,2.66-3.25,5.38-5.11,7.94-1.12,1.67-2.09,3.5-3,5.27-.11.33-.36.64-.06,1.05.77.14,1.26-.44,1.81-.73a58.74,58.74,0,0,0,8.65-6.84l4.81-4.33a13,13,0,0,1,1.45-1.17,2.94,2.94,0,0,1,3.51-.21,2.58,2.58,0,0,1,1.14,3.12,37.54,37.54,0,0,1-1.67,4.37c-2.54,5.48-5.64,10.72-8.73,16a12.72,12.72,0,0,1-.82,1.15,2.82,2.82,0,0,1-2.63.95,2.51,2.51,0,0,1-2.07-2,5,5,0,0,1,.29-2.92c.65-1.4,1.28-2.89,1.88-4.32.16-.29.39-.55.12-1C154.83,465.8,154.35,466.37,153.73,466.78Z"/><path class="cls-1" d="M127.61,471.4c-1.59-.54-1.64-.58-2.67.66-1.81,2-3.5,4.09-5.25,6.13a27.57,27.57,0,0,1-2.37,2.34,3.17,3.17,0,0,1-3.87.64,2.67,2.67,0,0,1-1-3.32,12.93,12.93,0,0,1,1.88-3.51c1.18-1.7,2.42-3.36,3.57-5,1.09-1.44,1.08-1.53-.43-2.42-.77-.53-1.52-1-2.23-1.47a2.56,2.56,0,0,1-.86-3.21,3,3,0,0,1,3.35-1.18,29.23,29.23,0,0,1,3.41,1.08c1.71.46,1.86.48,2.87-.85,1.85-2.3,3.65-4.64,5.29-7,2.11-3,4.16-6.08,6.54-8.9,2-2.37,3.69-4.93,5.61-7.34a3.13,3.13,0,0,1,4.23-.8c2.19,1.53.95,4-.12,5.78-1.82,3.31-3.67,6.66-5.65,9.85a92,92,0,0,1-6.71,9.26,12.63,12.63,0,0,0-.95,1.13c-.79,1-1,1.43-.5,1.77a7.4,7.4,0,0,0,1.25.55,8.35,8.35,0,0,1,2.75,1.43,3.13,3.13,0,0,1,.31,4.46C134,473.57,129.93,472.28,127.61,471.4Z"/><path class="cls-1" d="M109,416a2.16,2.16,0,0,1-1-2.86,2.94,2.94,0,0,1,2.95-1.81,10.19,10.19,0,0,1,6.52,2.2c7.4,6.11,5.73,15.65-2.64,20.77-4.78,2.93-9.83,3.54-14.79,1.17a6.39,6.39,0,0,1-2.08-10,9.72,9.72,0,0,1,7.28-3,15.84,15.84,0,0,1,6.89,1.62c1.29.59,1.71.35,1.92-.93.34-2.28-1.35-3.9-2.84-5.34A13.91,13.91,0,0,0,109,416Zm-4.27,12.43a.7.7,0,0,0-.65.58c0,.33.2.47.53.6a3.93,3.93,0,0,0,3.31-.34A3.41,3.41,0,0,0,104.71,428.47Z"/><path class="cls-1" d="M89.58,414.36a24.14,24.14,0,0,1-6.67.8c-4.21-.12-6.2-2.91-4.83-6.68a11.92,11.92,0,0,1,2.82-4.13c4.22-4.34,9.21-7.75,14.16-11.12a8.11,8.11,0,0,1,1.69-.9,3,3,0,0,1,3.46.58,2.7,2.7,0,0,1,.1,3.33,13.81,13.81,0,0,1-2.56,2.68c-2.49,1.92-4.9,3.95-7.52,5.71-1.62,1.19-3.17,2.58-4.66,3.92-.21.27-.56.48-.41,1,.68.4,1.32,0,2-.06A58.33,58.33,0,0,0,97.57,406l6-2.43a14.16,14.16,0,0,1,1.76-.61,3,3,0,0,1,3.38,1,2.57,2.57,0,0,1,0,3.32,35.87,35.87,0,0,1-3.06,3.53c-4.26,4.29-9,8.16-13.66,12a10.37,10.37,0,0,1-1.16.8,2.84,2.84,0,0,1-2.81,0A2.52,2.52,0,0,1,86.78,421a4.92,4.92,0,0,1,1.27-2.64c1.09-1.09,2.19-2.28,3.24-3.43.26-.21.55-.38.46-.91A4.15,4.15,0,0,0,89.58,414.36Z"/><path class="cls-1" d="M80.68,378.7a22.58,22.58,0,0,1,5.69.05c5,.82,7.11,4.8,5.07,9.39a11.32,11.32,0,0,1-5.92,6,19.69,19.69,0,0,1-13.22,1.49,12,12,0,0,1-8.26-6.2c-.87-1.59-1-1.7-2.63-.85A94.1,94.1,0,0,1,50.56,393a12.21,12.21,0,0,1-3,.67,2.93,2.93,0,0,1-3-1.74,3.22,3.22,0,0,1,1.21-3.42,10.91,10.91,0,0,1,1.31-.69,117.81,117.81,0,0,0,22.22-12.2c4.62-3.08,8.41-5.23,10.92-7.26,1.35-1.11,2.08-1.59,3.17-1a3.25,3.25,0,0,1,1.48,3.75A7.71,7.71,0,0,1,83,373.92a35.82,35.82,0,0,1-3.49,3.23,1.85,1.85,0,0,0-1,1.47A3.42,3.42,0,0,0,80.68,378.7Zm5,6.18c-.21-.81-1.27-.6-2-.71l-1.25-.07a54.62,54.62,0,0,0-10.29,1.35l-.62.16c-.89.34-1,.71-.2,1.4a4.61,4.61,0,0,0,2.14,1.09,17.6,17.6,0,0,0,10.74-1.4C84.8,386.15,85.94,385.81,85.65,384.88Z"/><path class="cls-1" d="M59.92,336.76A23.07,23.07,0,0,1,65.48,338c4.72,1.85,5.94,6.18,3,10.25a11.38,11.38,0,0,1-7,4.63,19.78,19.78,0,0,1-13.25-1.3,12.08,12.08,0,0,1-6.78-7.79c-.52-1.74-.57-1.86-2.39-1.38a97.1,97.1,0,0,1-11.54,2.06,13,13,0,0,1-3.06,0,2.92,2.92,0,0,1-2.54-2.32,3.19,3.19,0,0,1,1.89-3.09,11.2,11.2,0,0,1,1.43-.41,117.77,117.77,0,0,0,24.28-7.3c5.16-2.05,9.32-3.35,12.2-4.81,1.55-.81,2.36-1.13,3.31-.34a3.24,3.24,0,0,1,.66,4,7.77,7.77,0,0,1-2.46,2.38A37,37,0,0,1,59.1,335a1.84,1.84,0,0,0-1.33,1.22A3.42,3.42,0,0,0,59.92,336.76Zm3.57,7.09c0-.85-1.12-.86-1.79-1.11l-1.2-.33a55.25,55.25,0,0,0-10.35-.83l-.63,0c-1,.15-1.1.49-.49,1.33a4.53,4.53,0,0,0,1.87,1.51,17.61,17.61,0,0,0,10.79.88C62.39,344.91,63.58,344.82,63.49,343.85Z"/><path class="cls-1" d="M50.53,308.38a2.16,2.16,0,0,1,.61-3,3,3,0,0,1,3.46,0,10.28,10.28,0,0,1,4.4,5.3C62.09,319.78,55.66,327,45.85,327c-5.6,0-10.22-2.14-13.21-6.76a6.1,6.1,0,0,1-.85-2,6.19,6.19,0,0,1,4.33-7.61,9.77,9.77,0,0,1,7.78,1.25,15.84,15.84,0,0,1,5,5c.79,1.18,1.27,1.19,2.13.21,1.48-1.76.9-4,.38-6A13.72,13.72,0,0,0,50.53,308.38Zm-10.15,8.34a.71.71,0,0,0-.86.15c-.21.26-.08.51.13.8a4,4,0,0,0,3,1.44A3.43,3.43,0,0,0,40.38,316.72Z"/><path class="cls-1" d="M25.48,304.81c-.71-1.51-.07-3.51,2.44-4.37a51.06,51.06,0,0,1,6.27-1.91c4.16-1.12,8.33-2.17,12.37-3.6a2.59,2.59,0,0,0,1.73-1.08,4.61,4.61,0,0,0-2.75-.73,124.67,124.67,0,0,0-21.32-.84c-2.55.13-5.17.26-7.8.33-2,0-3.29-.71-3.44-2.11s1-2.87,2.81-3.28a63,63,0,0,1,10-1A100.87,100.87,0,0,1,49,288.32a14.79,14.79,0,0,1,3.92,1.29c2.88,1.59,3.61,4.11,2,6.93a12.83,12.83,0,0,1-6.32,5.58,45.26,45.26,0,0,1-11.57,3.55c-1.37.28-2.83.5-4.22.72C30.91,306.68,26.6,307.21,25.48,304.81Z"/><path class="cls-1" d="M45.17,264.35a2.17,2.17,0,0,1,1.19-2.82,2.94,2.94,0,0,1,3.38.69A10.18,10.18,0,0,1,53,268.28c1.25,9.51-6.47,15.35-16.09,13.39-5.49-1.11-9.6-4.11-11.62-9.22a6.51,6.51,0,0,1-.45-2.12,6.2,6.2,0,0,1,5.74-6.61A9.74,9.74,0,0,1,38,266.47a15.81,15.81,0,0,1,3.93,5.89c.54,1.31,1,1.42,2.05.63,1.79-1.44,1.67-3.78,1.56-5.85A13.24,13.24,0,0,0,45.17,264.35Zm-11.6,6.18a.69.69,0,0,0-.87,0c-.26.21-.17.48,0,.8a3.91,3.91,0,0,0,2.65,2A3.41,3.41,0,0,0,33.57,270.53Z"/><path class="cls-1" d="M48.18,250.24a1.75,1.75,0,0,1,.6-.05c2.14.12,3.39,1,3.75,2.64a3.49,3.49,0,0,1-2.44,3.75,21.16,21.16,0,0,1-5,.88,138.52,138.52,0,0,1-27.84,0,102.23,102.23,0,0,1-12.53-1.93c-.8-.22-1.66-.45-2.39-.73A3.61,3.61,0,0,1,0,251.14a3.32,3.32,0,0,1,2.75-2.87,9.38,9.38,0,0,1,3.88-.17c6,.62,12.09,1.18,18.17,1.47C32.53,249.9,40.48,250.44,48.18,250.24Z"/><path class="cls-1" d="M29.74,240.28c-1.78-1.66-2.49-3.89-3.48-6a2.4,2.4,0,0,1,.15-2.13,8.53,8.53,0,0,1,2.17-2.74,29.73,29.73,0,0,1,6.76-4.21c4.43-2,10.93-.35,14.77,3.48a12.34,12.34,0,0,1,3.48,6.61c1.34,6.59-3.24,11.23-9.57,11.32a12.41,12.41,0,0,1-1.6-.17A22.09,22.09,0,0,1,29.74,240.28ZM44.47,239c1.7-.16,2.11-.86,1.53-2.47a5.22,5.22,0,0,0-2.6-2.75,9.85,9.85,0,0,0-8.88,0c-1.05.43-1.1.9-.16,1.54a28.08,28.08,0,0,0,8.91,3.67A7.52,7.52,0,0,0,44.47,239Z"/><path class="cls-1" d="M36,208.6a11,11,0,0,1-3.49-5.24,5.43,5.43,0,0,1,1.81-5.9,6.3,6.3,0,0,1,2.88-1.55c5-1.13,10.16-.94,15,1.72A11.52,11.52,0,0,1,58,208.27a14,14,0,0,1-.91,4.38c-.59,1.38-.48,1.54,1,2.15A85.58,85.58,0,0,0,70,218.5a29,29,0,0,1,3.31.81,2.74,2.74,0,0,1,2.14,2.4,2.42,2.42,0,0,1-2,2.5,14.91,14.91,0,0,1-2.51.19,80.16,80.16,0,0,1-16.18-1.58,131,131,0,0,1-14.11-3.1c-2.19-.63-4.22-1.36-6.3-2.17a10.72,10.72,0,0,1-2.24-1.32,3.44,3.44,0,0,1-1.49-4A3.38,3.38,0,0,1,34,210.08a16.45,16.45,0,0,1,1.87.21c.54.05,1.08.38,1.84.07C37.35,209.46,36.53,209.14,36,208.6Zm4.54-8c-2.62.37-3.08,1.5-1.34,3.54a10.6,10.6,0,0,0,1.56,1.58,39.87,39.87,0,0,0,8.18,5.13c1.54.76,2,.39,1.93-1.28a7.94,7.94,0,0,0-.23-1.42c-1.14-3.76-4-5.83-7.35-7.27A5.34,5.34,0,0,0,40.51,200.57Z"/><path class="cls-1" d="M60.41,177.43a2.17,2.17,0,0,1,2.18-2.13,2.92,2.92,0,0,1,2.86,1.93,10.21,10.21,0,0,1,.7,6.85c-2.5,9.26-11.88,11.69-20,6.18-4.63-3.13-7.28-7.48-7.18-13a6.46,6.46,0,0,1,.4-2.13,6.2,6.2,0,0,1,7.84-3.89A9.72,9.72,0,0,1,53,176.64a15.66,15.66,0,0,1,1.37,6.94c0,1.42.39,1.7,1.65,1.37,2.21-.64,3-2.85,3.68-4.8A12.59,12.59,0,0,0,60.41,177.43Zm-13.07,1.26a.7.7,0,0,0-.8-.35c-.32.09-.35.37-.33.73a4,4,0,0,0,1.68,2.87A3.41,3.41,0,0,0,47.34,178.69Z"/><path class="cls-1" d="M52.34,153.3a21.41,21.41,0,0,1-1.21-4.74,4.45,4.45,0,0,1,.9-3.87,2.44,2.44,0,0,1,2.56-.85,2.29,2.29,0,0,1,1.59,1.95,35.47,35.47,0,0,0,10.24,17.92,22,22,0,0,0,3.76,3.14,2.44,2.44,0,0,1,1.18,2.94,2.72,2.72,0,0,1-3.14,1.76,33.3,33.3,0,0,1-9.57-3c-3-1.46-6-3-8.86-4.72-1.94-1.07-4.15-2.8-3.11-5.27a3.4,3.4,0,0,1,3-2c1.26-.13,2.38.63,4,.51Z"/><path class="cls-2" d="M225.75,174.42c12.05,12.54,50.3,75.35,37.49,85.65s-63.17-40.46-74.07-54c-8.13-10.12-21.95-42.64-10.85-51.56S213.71,161.91,225.75,174.42Z"/><path class="cls-2" d="M308.75,354.44c-12.05-12.53-50.3-75.34-37.5-85.64s63.18,40.46,74.07,54c8.14,10.12,21.95,42.64,10.86,51.57S320.78,367,308.75,354.44Z"/><path class="cls-2" d="M357.26,222.93c-12.53,12-75.35,50.31-85.65,37.5s40.47-63.17,54-74.07c10.12-8.14,42.64-22,51.56-10.86S369.78,210.9,357.26,222.93Z"/><path class="cls-2" d="M177.24,305.93c12.53-12.05,75.34-50.3,85.65-37.5s-40.47,63.18-54,74.08c-10.11,8.13-42.63,21.95-51.56,10.85S164.72,318,177.24,305.93Z"/><path class="cls-2" d="M174.25,230.13c17.38.34,88.85,17.71,87.08,34.05s-73.28,16.06-90.57,14.19c-12.9-1.4-45.66-14.63-44.13-28.79S156.89,229.79,174.25,230.13Z"/><path class="cls-2" d="M360.24,298.74c-17.38-.35-88.84-17.71-87.07-34.05s73.28-16.06,90.56-14.19c12.91,1.4,45.67,14.62,44.14,28.79S377.6,299.08,360.24,298.74Z"/><path class="cls-2" d="M301.55,171.44c-.35,17.38-17.71,88.85-34.05,87.08S251.44,185.23,253.32,168c1.4-12.91,14.62-45.67,28.78-44.13S301.89,154.08,301.55,171.44Z"/><path class="cls-2" d="M232.94,357.43c.35-17.39,17.72-88.85,34.05-87.08s16.06,73.28,14.19,90.57c-1.4,12.9-14.63,45.66-28.78,44.14S232.6,374.79,232.94,357.43Z"/><path class="cls-3" d="M282.41,252.24a19.85,19.85,0,1,1-27.9-3A19.84,19.84,0,0,1,282.41,252.24Z"/></g></g></svg>