<svg xmlns="http://www.w3.org/2000/svg" viewBox="0 0 548.7 413.07"><defs><style>.cls-1{fill:#fff;}.cls-2{fill:#e8bf4f;}.cls-3{fill:#211915;}</style></defs><title>globovecto</title><g id="Capa_2" data-name="Capa 2"><g id="Capa_1-2" data-name="Capa 1"><path class="cls-1" d="M212.34,409.4a.53.53,0,0,1-.5-.23,243.44,243.44,0,0,1-14.67-19.55,3.49,3.49,0,0,0-.62-.7c0-.11-.25-.51-.27-.63v0a8.1,8.1,0,0,0,.7-1.75c6.7-18.95,14.12-38.32,22.68-59.25a3.8,3.8,0,0,0-.27-3.41,3.51,3.51,0,0,0-2.86-1.69L201,321.7c-39.76-1.13-80.88-2.3-120.64-7.85-28.95-4.05-48-25.32-58.18-65l0-.51a3.76,3.76,0,0,0-.42-1.9C6.64,217.55,4.33,183.55,3.91,160.48l-.11-5.59c-.62-30.75-1.25-62.54,9.67-90.83,11.81-30.58,40.73-49.53,86-56.34,18.41-2.77,39.07-4.06,65-4.06,13,0,26.15.31,38.89.61,11.21.25,22.36.51,33.38.57,58.56.32,116,.79,174.31,2.94,3.88.14,7.88.24,12,.33,27.46.62,58.57,1.32,77.66,18.64a3.82,3.82,0,0,0,1,.65c27.51,18.46,40.22,38.89,41.56,66.45,2.14,44,3.62,87-1.7,128.89-3.84,30.31-8.78,56.94-30.33,75.83-20.21,17.7-43,25.7-74,25.93q-33.33.24-66.66.7l-14.95.17c-3.45,0-6.81-.14-10.08-.28s-6.3-.27-9.33-.27c-8.46,0-18.29.95-27.1,8q-15,12-30.08,23.92c-21.36,16.95-43.44,34.48-65,52A3,3,0,0,1,212.34,409.4Z"/><path class="cls-2" d="M546.76,93.67C545.21,61.91,528.83,41.25,504,24.51a5.31,5.31,0,0,0-1-.53C480,3.15,441.51,5.24,411.16,4.12,353.05,2,294.88,1.5,236.74,1.18,191.39.93,144-2.67,98.94,4.1,62.59,9.57,25,24.43,10.21,62.69-1.65,93.43-.21,128,.39,160.55c.56,30.06,4.33,61,18.29,87.61a5.25,5.25,0,0,0,.1,1.61c8.63,33.61,25.59,62.75,61.1,67.71,45.08,6.3,91.09,7,136.55,8.34-8,19.61-15.67,39.41-22.74,59.41a4,4,0,0,0-.92,3.37c0,.08,0,.16,0,.25v0a4.09,4.09,0,0,0,1.48,2.84c4.67,6.88,9.57,13.47,14.89,19.85,1.92,2.31,5,1.63,7,0,31.49-25.55,63.36-50.6,95-75.87,13-10.34,28.27-6.48,45.8-6.69,26.74-.31,53.48-.66,80.22-.86,29-.22,53.78-7.13,76.22-26.79,23-20.12,27.8-48.49,31.56-78.15C550.44,180.64,548.84,136.45,546.76,93.67Zm-11.23-3c.81,5,1.37,10.13,1.74,15.46-1.1-1.13-2.21-2.18-3.09-3.1a68.38,68.38,0,0,0-6.74-6.29c-.49-5.79-1.15-11.54-2-17.21,1,1,2,1.95,2.91,3C530.65,85.1,532.78,88.44,535.53,90.68Zm2.7,47q.12,7.34.18,14.71c-1-1.27-1.93-2.37-2.4-3-1.85-2.49-4.49-6.23-7.54-8.78.15-5.44.22-10.9.18-16.38,1.64,2.12,3.31,4.21,4.9,6.37C535,132.55,536.44,135.43,538.23,137.7Zm-15.76,76.11c2,3.12,4.3,6.08,6,8.59,1.37,2,3.34,5.47,5.62,8.25Q533,238.36,531.41,246c-1.54-2.28-3.21-4.43-4.48-6.2-2.18-3.06-4.71-7.06-7.8-9.72C520.49,224.78,521.59,219.36,522.47,213.81Zm8.5,4.83c-2.32-3.14-4.69-7.72-7.59-11.14.85-6.32,1.5-12.77,2.08-19.26,2.15,2.65,4.27,5.34,6.29,8.1,1.82,2.5,3.53,5.09,5.22,7.68q-.74,10-2,19.84Q532.92,221.3,531,218.64Zm3.53-24.52c-2.13-2.85-5.13-7.8-8.64-10.33,0-.1,0-.19,0-.28.54-6.28,1-12.71,1.46-19.23,1.27,1.81,2.71,3.51,3.89,5.08,1.84,2.48,4,4.73,5.93,7.13.38.47.72.94,1.05,1.38-.15,6.62-.38,13.23-.77,19.84C536.29,196.31,535.19,195,534.5,194.12Zm1.06-24.83c-2-2.36-4-4.62-6-7-.71-.84-1.32-1.7-2-2.53q.38-6.39.63-12.86c1.71,2.15,3.37,4.35,4.93,6.63.53.79,2.93,5.16,5.22,7.44,0,3.78,0,7.55-.09,11.34C537.32,171.23,536.32,170.2,535.56,169.29Zm1.14-41.21a76.34,76.34,0,0,0-8.13-9.06c-.11-5.56-.34-11.12-.71-16.65.84.88,1.69,1.74,2.52,2.59q2.94,3,5.61,6.28c.59.73,1.12,1.43,1.67,2.09.23,5.3.35,10.76.45,16.39C537.59,129.15,537.1,128.59,536.7,128.08ZM534,82.9c-1-1.09-2-2.14-2.94-3.19a53.31,53.31,0,0,0-6.66-6.84,199.54,199.54,0,0,0-4.8-20.65A76.76,76.76,0,0,1,534,82.9Zm-523,23C13.86,40.45,62.19,17,118,12.42c48.23-4,97.69-1.09,146-.73,57.21.43,114.46,1.18,171.63,3.77,31.89,1.44,63.54,3.81,74.75,40.54,6.79,22.24,6.83,47.48,7.32,70.6,1,48.28,4.42,114.54-37.56,145.22-25.58,18.71-57.45,20.1-87.46,20.17q-47.74.12-95.48-.29c-8.46-.09-23.22,20.82-28.61,26C249.19,336.34,229.37,354.52,209,372q9.14-24.74,19.24-49.07a.36.36,0,0,0,0-.09q5.1-12.25,10.37-24.41c1.54-3.53-.25-7.68-4.27-7.78-36.42-.89-72.83-2.13-109.17-4.78C94.3,283.65,61.57,282.3,38,258.59,2.51,222.78,9,152.58,11,105.88ZM511.05,252c1.46,1.92,2.8,4,4.15,6,3.1,4.6,5.78,9.5,8.65,14.25a69.17,69.17,0,0,1-7.66,13.08c-1.63-2.8-3.75-5.45-5.19-7.67-2.51-3.87-5.22-8.62-8.5-12.26A77.06,77.06,0,0,0,511.05,252Zm-63.73,44.76A58.27,58.27,0,0,0,452.54,308c1.29,2.35,2.5,5.28,3.95,8-3,.47-6.06.88-9.14,1.21-1.15-4.07-4.52-8.41-6.24-11.4-1.1-1.91-2.38-4.42-3.88-6.74C440.62,298.36,444,297.58,447.32,296.72Zm9.39,11.17c-2.26-3.85-4.33-8-6.76-11.82q5-1.4,9.94-3.11a69.42,69.42,0,0,0,5.3,10.79c1.41,2.57,3,6.52,5.11,9.47-3,.76-6.07,1.4-9.17,2C459.82,312.6,458,310.15,456.71,307.89Zm12.75-4.37c-2.3-3.68-4.23-7.9-6.47-11.78q5.4-2,10.64-4.54a61.9,61.9,0,0,0,5,9.05,84.23,84.23,0,0,0,8.22,11.42A103.66,103.66,0,0,1,474.72,312C473.51,309,471,306,469.46,303.52Zm13.86-7.6c-2-3.19-3.93-7-6.14-10.43.52-.27,1.05-.48,1.57-.75a80.26,80.26,0,0,0,8.75-5.45c2.09,4.07,5.14,8,7.29,11.72,1.59,2.79,3.28,6.48,5.52,9.36a77.88,77.88,0,0,1-10.85,6.13A90.31,90.31,0,0,0,483.32,295.92Zm-94.48,7.72a91.69,91.69,0,0,0,3.7,9.16c.75,1.71,1.57,3.79,2.56,5.8-3.78-.05-7.49-.1-11.1-.12-.6-3.08-3.44-6.46-4.76-8.65-1.17-1.93-2.22-4.05-3.3-6.17C380.24,303.7,384.54,303.71,388.84,303.64Zm7.84,8.86c-1.57-2.87-2.86-5.94-4.24-9,3.63-.09,7.25-.24,10.87-.43a89.1,89.1,0,0,0,4.74,11.28c.61,1.28,1.21,2.82,1.9,4.34q-4.83,0-9.56-.07C399.22,316.5,397.72,314.42,396.68,312.5Zm14.34.08c-1.64-3.26-3.22-6.54-5.08-9.63,4-.25,8.06-.57,12.07-1,1.57,3.4,3.6,6.64,5.45,9.8,1.12,1.91,2.31,4.5,3.76,6.74-4.21.14-8.41.21-12.57.23C413.47,316.55,412,314.44,411,312.58ZM296.75,333.41c-2.41-6.28-5.3-14.18-9.68-19.55,2.24-2.18,4.51-4.33,6.74-6.52a39.58,39.58,0,0,1,3.14-2.77c1.74,3.15,3.72,6.21,5.18,9.2s2.25,7.85,4.1,11.25C303,327.56,299.79,330.53,296.75,333.41Zm-54.12,22.34c1.1,1.95,2.42,3.81,3.37,5.5,1.54,2.74,2.87,7,5.2,9.44l-6.84,5.46c-1.25-2.37-3.33-4.7-4.47-6.48-1.31-2-2.77-5-4.55-7.3C237.78,360.18,240.2,358,242.63,355.75Zm6.64,3.5c-1.07-1.83-2.27-4.16-3.72-6.18,2.77-2.53,5.55-5,8.3-7.59,1.13,2.11,2.65,4.13,3.64,5.81,1.4,2.37,2.7,4.83,3.92,7.31.55,1.13.84,2.08,1.26,2.94l-8.43,6.73C253.34,365,250.73,361.76,249.27,359.25Zm13-7.56c-1.36-2.08-2.85-4.08-4.33-6.07-.56-.75-1.1-1.57-1.67-2.37q3.66-3.4,7.3-6.85c1.35,2.66,3.12,5.19,4.36,7.35,1.44,2.51,2.75,5.08,4,7.7.36.76.63,1.41.91,2L266,358.92C265.29,356.28,263.47,353.59,262.23,351.69Zm10-8.56c-1.84-3-3.83-5.86-5.79-8.76l-.3-.46c1.58-1.48,3.16-2.94,4.73-4.43,1-.92,1.91-1.86,2.88-2.78,1.14,2.18,2.47,4.28,3.61,6.32a70.1,70.1,0,0,1,4.15,8.54,13.21,13.21,0,0,0,1.62,3.62l-6.68,5.33C275.53,347.77,273.37,344.92,272.27,343.13Zm-47.85,37c1.33,2.47,2.87,4.81,4.35,7.19.18.3.36.57.54.85l-7.21,5.76a74.65,74.65,0,0,0-5.13-8.05c-1-1.29-2-3.05-3.16-4.63,2.53-2.17,5.07-4.34,7.59-6.53C222.41,376.8,223.72,378.8,224.42,380.13Zm-32.09-65.52c-1.28-2.07-2.58-4.12-3.78-6.24-1.32-2.32-2.58-5.64-4.15-8.58l10.44.3c1.73,3.05,4.16,5.93,5.92,8.58,1.25,1.89,2.46,4.33,3.94,6.38ZM59.7,292.55c-2.14-3.27-4.11-7-6.29-10.4a101.47,101.47,0,0,0,14.24,5.6c1.76,3.78,3.64,7.51,5.66,11.13,1.37,2.46,2.81,5.16,4.39,7.75A77.72,77.72,0,0,1,65.83,303C64.52,299.22,61.87,295.85,59.7,292.55Zm16.19,4.75c-1.64-2.7-3-5.74-4.69-8.5,3.7,1,7.46,1.89,11.25,2.61a81.89,81.89,0,0,0,6,10.86c1.2,2,2.39,4.35,3.7,6.64q-4.93-.51-9.8-1.36C80.62,303.9,77.87,300.55,75.89,297.3ZM93,302c-1.94-3.19-4-6.65-6.26-9.8l2.38.38c3.52.51,7.06.92,10.6,1.36,1.21,3,2.84,5.89,4.24,8.75,1.08,2.18,2.13,4.89,3.36,7.49-3.17-.21-6.37-.44-9.57-.7C96.29,306.81,94.41,304.34,93,302Zm15.45.5c-1.35-2.55-2.74-5.36-4.34-8,4.42.53,8.85,1,13.29,1.4a50.82,50.82,0,0,0,5,8.8c1.38,2.16,2.76,4.52,4.31,6.73-4.63-.29-9.25-.55-13.87-.88C111.53,307.64,109.7,304.89,108.41,302.45Zm18,1.51c-1.73-2.56-3.58-5.22-5.54-7.75q5.3.48,10.58.88c1.13,3.49,3.49,6.81,5.28,9.72,1,1.58,1.93,3.52,3,5.4-2.89-.16-5.78-.37-8.67-.55A41.69,41.69,0,0,0,126.45,304Zm14.78,2.25c-1.67-2.68-3.28-5.9-5.16-8.78,4.1.29,8.2.57,12.31.81A109.85,109.85,0,0,0,154,308.52c.78,1.39,1.53,3,2.29,4.52-3.67-.18-7.34-.35-11-.55C144.09,310.27,142.46,308.18,141.23,306.21Zm16.19.19c-1.7-2.67-3.45-5.4-5.36-8q7.08.39,14.16.7a73,73,0,0,0,4.82,9.33c.87,1.58,1.77,3.51,2.8,5.41l-12.13-.55C160.44,310.84,158.75,308.49,157.42,306.4Zm16.85.09c-1.33-2.23-2.6-4.82-4.06-7.21,3.12.13,6.25.26,9.38.37,1.3,3.9,4,8,5.52,10.82.56,1,1.19,2.45,1.89,3.92l-7.67-.3C177.77,311.41,175.7,308.86,174.27,306.49Zm28.23-.93c-1.13-1.63-2.27-3.53-3.52-5.36l11.5.27q1.64,2.59,3.29,5.18a60.44,60.44,0,0,1,4.2,7.66c.35.76.57,1.52.85,2.22-3.22-.1-6.43-.22-9.65-.33C207.8,311.71,204.45,308.36,202.5,305.56Zm19.42,7a41.28,41.28,0,0,0-3.67-6.58c-1.13-1.87-2.44-3.62-3.73-5.38l12.37.28C225.23,304.74,223.56,308.63,221.92,312.53ZM36.06,270.79a77.41,77.41,0,0,0,12.91,9c1,4.06,3.62,7.91,5.79,11.24,1.94,3,3.81,6.43,5.87,9.64C49,294.62,41.35,283.27,36.06,270.79ZM215.73,399c-.78.62-1.56,1.24-2.33,1.87-3.12-3.79-6-7.74-8.79-11.8,2.09-1.76,4.16-3.54,6.24-5.31.71,1.26,1.52,2.47,2.16,3.59,1.8,3.15,3.79,6.18,5.69,9.27Zm17.08-13.65a57.76,57.76,0,0,0-4-6.25c-1.47-2.37-3-4.69-4.35-7.12,2.71-2.38,5.41-4.76,8.1-7.17,1.25,2.42,3,4.77,4.15,6.77s2.57,5,4.43,7.12l-6.07,4.85Zm53.32-42.55c-.37-3.05-2.82-6.47-4.1-8.68-1.82-3.14-3.77-6.53-5.89-9.72,2.82-2.69,5.61-5.41,8.41-8.12,1,1.9,2.08,3.8,2.94,5.81,2.05,4.78,3.78,9.72,5.87,14.49-1.76,1.66-3.45,3.2-5,4.41Zm24.92-21.13c-.94-3.09-3-6.28-4.11-8.45a112.08,112.08,0,0,0-6.25-10.84c3.43-1.29,6.79-.55,13.16-.29a88.18,88.18,0,0,0,4.52,10.33c.64,1.35,1.55,3.67,2.7,5.83a48.57,48.57,0,0,0-5,1.06A22.15,22.15,0,0,0,311.05,321.69Zm15-4.12c-1.2-2-2.57-3.81-2.77-4.15-2.06-3.47-3.61-7.43-5.38-11.2,5.57.06,11.21.19,16.91.35,1.19,3,2.7,5.87,3.72,8.45.7,1.79,1.29,4.06,2.19,6.05A117.52,117.52,0,0,0,326.05,317.57Zm19.34-.38c-.54-2.7-2.22-5.48-3.25-7.76-.92-2-1.82-4.41-2.87-6.72l14.68.46c.87,2,2,4,2.83,5.75,1.19,2.53,2.21,6.3,3.86,9.13C355.69,317.76,350.54,317.41,345.39,317.19Zm28.7,1.29c-3,0-6.23-.08-9.54-.23-.4-3.31-2.84-6.78-4.18-9.49-.82-1.67-1.63-3.59-2.53-5.47,4.51.14,9,.23,13.57.31.85,1.84,1.87,3.61,2.78,5.25,1.67,3,3.44,6,5,9,.11.21.19.38.28.57C377.67,318.46,375.86,318.46,374.09,318.48Zm58.06-.19c-1.27-3.07-3.87-6-5.48-8.5s-3.38-5.52-5.21-8.23q5.4-.66,10.73-1.58c1.49,2.93,3.59,5.76,4.93,8.23,1.62,3,3.28,5.94,4.83,9l.23.47C438.85,317.93,435.5,318.13,432.15,318.29Zm72-20.74c-2.05-3.62-4.95-7.14-6.81-10.27s-4-7.32-6.8-10.24a72.93,72.93,0,0,0,9.77-9.23c2.11,4.12,5.27,8,7.64,11.61,1.71,2.64,3.21,6.45,5.11,9.63A66.15,66.15,0,0,1,504.19,297.55Zm21.48-29.89c-2.67-4.37-5.29-8.78-8.2-13a39,39,0,0,0-4.77-6A106.68,106.68,0,0,0,518,234.24c1.81,2.63,4,5.12,5.63,7.53s3.37,5.13,4.94,7.78c.51.86,1,1.78,1.41,2.7-.52,2.25-1,4.53-1.54,6.77A83.28,83.28,0,0,1,525.67,267.66Z"/><path class="cls-2" d="M485.33,54.42c13.55,18.44,7.92,48.2,12.91,69.81a.92.92,0,0,0,1.79,0c4.12-23.93,4.63-56.46-10.3-76.82-18-24.49-66.19-19.25-91.33-17.57a.24.24,0,0,0-.07.47C424.94,40.39,466.32,28.54,485.33,54.42Z"/><path class="cls-2" d="M119.66,267.59a.9.9,0,0,0,.22-1.74c-15.41-6-32.07-5.18-47.9-9.72-20.6-5.91-28.5-22.38-42.06-37.09a.39.39,0,0,0-.64.4C41.21,260.35,82.46,272.63,119.66,267.59Z"/><path class="cls-2" d="M135.82,266.42c-1.75-.11-3.48-.21-5.22-.42-1.57-.18-2.37.66-3.69.91-.53.09-.58.79-.29,1.14.43.53.44,1.33,1.16,1.81a12.76,12.76,0,0,0,5.17,1.85c3.79.72,7.81,1.74,11.1-.76a1,1,0,0,0,.18-1.46C142,266.64,139.13,266.65,135.82,266.42Z"/><path class="cls-2" d="M384.21,33.42c1.84-.05,4.41-.47,4.62-2.74.36-3.73-11.72-.58-13.39.12a.78.78,0,0,0,0,1.48C378.36,33.49,381.08,33.52,384.21,33.42Z"/><path class="cls-2" d="M467.87,265.77c-7.46,2.08-15.13,3.7-22.68,5.42-7.35,1.67-16,.95-22.84,4.36a.76.76,0,0,0,0,1.26c6.2,3.74,14.77,2.32,21.55,1.19a52.83,52.83,0,0,0,24.69-10.46C469.41,266.92,468.94,265.47,467.87,265.77Z"/><path class="cls-2" d="M62.84,40.78c12.1-2.22,23.84-6,36-8,12.6-2.1,24.43-3.4,36.68-7.37.78-.26.65-1.53-.2-1.51-22.77.42-54.58-.2-73.1,15.82C61.71,40.15,62.3,40.87,62.84,40.78Z"/><path class="cls-3" d="M82.09,102.82a2.16,2.16,0,0,1-1.57,2.38,2.45,2.45,0,0,1-2.79-1.47,8.56,8.56,0,0,1-.71-3.19,80,80,0,0,1-.66-13.93V85.5c0-1.37,0-1.37-1.41-1.42a5.14,5.14,0,0,1-2.13-.36,1.92,1.92,0,0,1-1.17-1.52,1.81,1.81,0,0,1,1-1.67,9,9,0,0,1,2.73-1,1.51,1.51,0,0,0,1.32-1.62c.25-4.36.6-8.71.91-13a17.43,17.43,0,0,1,.4-2.33A1.82,1.82,0,0,1,79.71,61a2.1,2.1,0,0,1,1.77,1.37,5,5,0,0,1,.25,2.13c0,3.75,0,7.55,0,11.34v.76c0,1.42.15,1.57,1.52,1.47,2.08-.2,4.1-.51,6.18-.76.56-.1,1.11-.15,1.67-.2,1.17-.1,1.27-.2,1.37-1.27l.61-8.5a67.17,67.17,0,0,1,1-7.25,6.65,6.65,0,0,1,.71-2A1.93,1.93,0,0,1,96.67,57a1.85,1.85,0,0,1,1.47,1.78c0,1.77,0,3.54,0,5.31-.25,4.26-.1,8.46-.15,12.72a2.14,2.14,0,0,0,.66,1.67c1.26,1.21,1.26,2.12.05,3.29A2.11,2.11,0,0,0,98,83.67c.25,2.94.4,5.93.61,8.87a56.9,56.9,0,0,1,0,6.53l-.11.91a2.61,2.61,0,0,1-2.38,2.13,2.51,2.51,0,0,1-2.68-1.93,13.19,13.19,0,0,1-.3-1.52,64.49,64.49,0,0,1-.66-11.29c0-1.06,0-2.18-.1-3.24-.1-1.37-.31-1.57-1.62-1.52-1.88,0-3.8.2-5.73.35a3.86,3.86,0,0,1-.76.1c-2.63.11-2.22.56-2.22,2.49-.06,2.73,0,5.52,0,8.25h0Z"/><path class="cls-3" d="M104.93,74.91c1.11-1.47,2.73-2.18,4.25-3.09a1.84,1.84,0,0,1,1.62,0A6.53,6.53,0,0,1,113,73.19a22.93,22.93,0,0,1,3.7,4.76c1.82,3.19,1.11,8.2-1.47,11.39a9.37,9.37,0,0,1-4.71,3.14c-4.86,1.52-8.71-1.57-9.27-6.33a9.77,9.77,0,0,1,0-1.21A16.77,16.77,0,0,1,104.93,74.91Zm2.12,11c.26,1.27.81,1.52,2,1a3.91,3.91,0,0,0,1.87-2.17,7.44,7.44,0,0,0-.66-6.69c-.4-.76-.76-.76-1.16,0A21.31,21.31,0,0,0,107,85,5.87,5.87,0,0,0,107.05,85.9Z"/><path class="cls-3" d="M125.84,89.24a1.48,1.48,0,0,1,0,.46c0,1.62-.66,2.58-1.92,2.89a2.65,2.65,0,0,1-2.89-1.78,16,16,0,0,1-.76-3.74A105.13,105.13,0,0,1,119.81,66,76.25,76.25,0,0,1,121,56.48a16.9,16.9,0,0,1,.51-1.83,2.73,2.73,0,0,1,2.68-1.82,2.52,2.52,0,0,1,2.23,2,7.22,7.22,0,0,1,.2,2.93c-.35,4.56-.66,9.17-.76,13.78C125.79,77.39,125.54,83.42,125.84,89.24Z"/><path class="cls-3" d="M137.74,88.23A10.31,10.31,0,0,1,134,91.72c-2.63,1.47-5,.82-5.92-1.67s-.71-5.21.25-8A23.14,23.14,0,0,1,132,75.27a10,10,0,0,1,4.76-3.55,4.43,4.43,0,0,1,4.1.36,3.13,3.13,0,0,0,1.67.5A2.18,2.18,0,0,1,145,74.51a9.18,9.18,0,0,1,.16,2.43,25.88,25.88,0,0,0,.1,4.4c.25,2.74,0,5.52.1,8.26,0,.25,0,.5,0,.76a2.44,2.44,0,0,1-1.52,2.18,2.13,2.13,0,0,1-2.53-.51,3,3,0,0,1-.76-1.67c-.21-1-.31-2-.51-3-.1-.51,0-1.11-.66-1.57C138.81,86.66,138.3,87.47,137.74,88.23Zm-3.9-1.06c2.69-2.84,3.85-6.23,5.22-9.58.2-.6-.36-.91-1-.55a4.74,4.74,0,0,0-1.42,1.47,26.85,26.85,0,0,0-3.45,7.64,1.27,1.27,0,0,0,.11,1.27A2.3,2.3,0,0,0,133.84,87.17Z"/><path class="cls-3" d="M147.52,89.5a3.23,3.23,0,0,1,3.29-3.24,3.73,3.73,0,0,1,3.64,3.49,3.27,3.27,0,0,1-3.39,3.09A3.48,3.48,0,0,1,147.52,89.5Zm5.77-18.74a74.59,74.59,0,0,0-.51,8.86c0,.56,0,1.12-.05,1.67a2.07,2.07,0,0,1-1.87,2,2.1,2.1,0,0,1-2.28-1.52,3.32,3.32,0,0,1-.25-1.22c0-5.52-.51-11-.15-16.61a8.19,8.19,0,0,1,.5-2.89,3.85,3.85,0,0,1,1.47-1.77,2.63,2.63,0,0,1,4.1,1.67,7,7,0,0,1,.15,2.33C154.35,65.69,153.54,68.18,153.29,70.76Z"/><path class="cls-3" d="M155.92,89.5a3.24,3.24,0,0,1,3.29-3.24,3.74,3.74,0,0,1,3.65,3.49,3.27,3.27,0,0,1-3.39,3.09A3.49,3.49,0,0,1,155.92,89.5Zm5.77-18.74a74.58,74.58,0,0,0-.5,8.86c0,.56,0,1.12-.05,1.67a2.12,2.12,0,0,1-4.15.46,3.14,3.14,0,0,1-.26-1.22c.05-5.52-.5-11-.15-16.61a8.2,8.2,0,0,1,.51-2.89,3.85,3.85,0,0,1,1.47-1.77,2.63,2.63,0,0,1,4.1,1.67,7,7,0,0,1,.15,2.33C162.76,65.69,162,68.18,161.69,70.76Z"/><path class="cls-3" d="M84.76,128.76a8.4,8.4,0,0,0-2,1.82c-1.61,1.95-3.6,4.56-3.73,7.16-.13,3.73,9.89,2.43,9.76,10.16-.08,6.25-6.85,9.72-11.93,11.63a5.52,5.52,0,0,1-2.35.35,1.81,1.81,0,0,1-1.82-1.61c-.09-.78.39-1.3,1.39-1.73,2.56-1,10.07-5.47,10.16-8.81,0-2.18-3.82-3-5.34-3.56a6.22,6.22,0,0,1-4.21-7.69,18.77,18.77,0,0,1,4.08-8,12.72,12.72,0,0,1,3.77-3.21,5.2,5.2,0,0,1,2.69-.7,2.48,2.48,0,0,1,2,1.09,2.28,2.28,0,0,1,.44,2.13,1.39,1.39,0,0,1-1.57.69A1.46,1.46,0,0,0,84.76,128.76Z"/><path class="cls-3" d="M94.1,135.92a11.49,11.49,0,0,1,3.64-2.65,1.54,1.54,0,0,1,1.39,0,5.45,5.45,0,0,1,1.91,1.21,19.41,19.41,0,0,1,3.17,4.08c1.56,2.74,1,7-1.26,9.77a8.05,8.05,0,0,1-4,2.69c-4.16,1.3-7.46-1.35-7.94-5.43a9,9,0,0,1,0-1A14.35,14.35,0,0,1,94.1,135.92Zm1.82,9.42c.22,1.08.69,1.3,1.69.82a3.42,3.42,0,0,0,1.61-1.86,6.36,6.36,0,0,0-.57-5.73c-.34-.66-.65-.66-1,0a17.65,17.65,0,0,0-1.78,6A5.43,5.43,0,0,0,95.92,145.34Z"/><path class="cls-3" d="M120.06,155.63c-.74,3-3,5.73-6.21,5.73a7.24,7.24,0,0,1-4.08-1.57,2.48,2.48,0,0,1-.92-1.08A1.53,1.53,0,0,1,109,157a1.38,1.38,0,0,1,1.61-.43,5.54,5.54,0,0,0,2.09.22,2.74,2.74,0,0,0,2.51-1.74,13.55,13.55,0,0,0,1.22-5.43c0-.61-.26-.65-.74-.3l-.61.56a4.74,4.74,0,0,1-3,1.17c-3.78,0-5.13-5.16-5.13-8.16,0-1.65.7-7.55,2-8.81a2,2,0,0,1,2-.69,1.61,1.61,0,0,1,1.3,1.47,3.75,3.75,0,0,1,0,1.56,24.52,24.52,0,0,0-.86,6.52,13.94,13.94,0,0,0,.3,3.17c.09.43.39,1,1,1,2.69.13,3.68-10.76,3.77-11.93a1.83,1.83,0,0,1,1.91-1.78,2,2,0,0,1,1.91,1.86c.22,1.35.39,2.78.52,4.17C121.1,143.25,121.1,151.81,120.06,155.63Z"/><path class="cls-3" d="M143.93,149.9a84.84,84.84,0,0,0,2.91-16.2c.34-4.12.65-8.24,1.21-12.32a13.46,13.46,0,0,1,.35-1.83,1.54,1.54,0,0,1,1.61-1.13,1.8,1.8,0,0,1,1.47,1.39,9.06,9.06,0,0,1,.13,1.87,128.75,128.75,0,0,1-1.34,16.89,103.15,103.15,0,0,1-3,15.23,11.71,11.71,0,0,1-1.17,2.87l-.48.78c-1.78,2.3-4.47,2-6-.65a29.22,29.22,0,0,1-2.56-7.38,120.14,120.14,0,0,1-2.87-24.14,23.75,23.75,0,0,1,.09-3,1.83,1.83,0,0,1,1.48-1.91,2.2,2.2,0,0,1,2.21,1.22,7.85,7.85,0,0,1,.74,2.17c.52,2.91.91,5.82,1.26,8.77.65,5.56,1.26,11.15,2.39,16.67a6,6,0,0,0,.65,2.6A3.6,3.6,0,0,0,143.93,149.9Z"/><path class="cls-3" d="M156.6,130.88A3.74,3.74,0,0,1,153,127a3.9,3.9,0,0,1,3.78-3.69c1.73,0,3.3,1.91,3.3,4A3.48,3.48,0,0,1,156.6,130.88Zm2,15.15c0,1,0,2-.09,2.95a2,2,0,0,1-1.95,2,2.53,2.53,0,0,1-1.48-.6,3.17,3.17,0,0,1-1-1.74c-.74-4-1.26-8-.26-12a7.14,7.14,0,0,1,.82-2.26,2.2,2.2,0,0,1,2.17-1.21,2.28,2.28,0,0,1,1.91,1.82,14,14,0,0,1,.22,3.82C159,141.3,158.69,143.64,158.6,146Z"/><path class="cls-3" d="M161.33,127.67a14.25,14.25,0,0,1,.22-2.34,1.81,1.81,0,0,1,1.65-1.7,2,2,0,0,1,1.91,1.56,8.09,8.09,0,0,1,.26,2.09c0,3,0,6,0,9.07,0,.44-.26,1.13.31,1.3s.74-.43,1.08-.78l2.56-2.52a1.91,1.91,0,0,1,2.22-.43,1.66,1.66,0,0,1,.56,2.69c-1.65,1.91-2.91,4.13-4.51,6.08-.74.91-.74,1,.39,1.48a23,23,0,0,0,2.39.78,15.23,15.23,0,0,1,3.51,1.6,6.43,6.43,0,0,1,.83.7,1.88,1.88,0,0,1,.56,2.26,2.05,2.05,0,0,1-2,1.21,10.56,10.56,0,0,1-4-.95c-1-.44-1.87-.87-2.82-1.22-.7-.3-.87-.22-.92.56-.08,1.87-.08,3.74-.13,5.6,0,.74,0,1.52,0,2.26a1.64,1.64,0,0,1-1.26,1.7,1.83,1.83,0,0,1-2-1,6.18,6.18,0,0,1-.53-2.17,86.82,86.82,0,0,1-.65-11C161,138.87,161.12,133.27,161.33,127.67Z"/><path class="cls-3" d="M177,155c-.34-.47-.13-.91.13-1.34a7.54,7.54,0,0,0,1-2.08,1.32,1.32,0,0,0-.18-1.26,2,2,0,0,1,.27-2.65A2.63,2.63,0,0,1,181,147a2.88,2.88,0,0,1,1.69,3.39,9.57,9.57,0,0,1-3.21,4.69,1.86,1.86,0,0,1-1.22.3A1.23,1.23,0,0,1,177,155Z"/><path class="cls-3" d="M205.87,146.94a14.77,14.77,0,0,1-2,3.09c-2.21,2.43-5.12,2.17-6.9-.57a7.31,7.31,0,0,1-1.17-5.34,12.85,12.85,0,0,1,3.86-7.73,7.86,7.86,0,0,1,6.29-2.3c1.18.09,1.26.09,1.39-1.13a61.74,61.74,0,0,1,1.44-7.46,7.87,7.87,0,0,1,.69-1.87,1.9,1.9,0,0,1,2-1,2.07,2.07,0,0,1,1.43,1.87,6.35,6.35,0,0,1-.09,1,76.85,76.85,0,0,0-1.21,16.4c0,3.61-.13,6.43.08,8.51.13,1.13.13,1.7-.56,2.09a2.12,2.12,0,0,1-2.56-.52,5,5,0,0,1-.87-2,22.68,22.68,0,0,1-.52-3,1.19,1.19,0,0,0-.43-1.09C206.22,146,206.09,146.51,205.87,146.94Zm-5.12.52c.52.18.78-.47,1.08-.82l.48-.65a35.34,35.34,0,0,0,2.91-6.08l.13-.39c.13-.61,0-.78-.7-.61a3.05,3.05,0,0,0-1.34.78,11.4,11.4,0,0,0-3,6.34C200.36,146.55,200.14,147.29,200.75,147.46Z"/><path class="cls-3" d="M217.5,130.88a3.74,3.74,0,0,1-3.6-3.86,3.9,3.9,0,0,1,3.78-3.69c1.73,0,3.29,1.91,3.29,4A3.47,3.47,0,0,1,217.5,130.88Zm2,15.15c0,1,0,2-.09,2.95a2,2,0,0,1-1.95,2,2.53,2.53,0,0,1-1.48-.6,3.17,3.17,0,0,1-.95-1.74c-.74-4-1.26-8-.26-12a7.14,7.14,0,0,1,.82-2.26,2.2,2.2,0,0,1,2.17-1.21,2.28,2.28,0,0,1,1.91,1.82,14,14,0,0,1,.22,3.82C219.93,141.3,219.59,143.64,219.5,146Z"/><path class="cls-3" d="M221.15,153.54a2.24,2.24,0,0,1,.48-3.77,10.35,10.35,0,0,0,3.69-3.39,2.09,2.09,0,0,0,.21-2.13,13.62,13.62,0,0,0-1.39-2.43,8.34,8.34,0,0,1-1.43-3.38,5.29,5.29,0,0,1,4.65-6.08,2.56,2.56,0,0,1,2.69,1.3,1.6,1.6,0,0,1-.44,2.21,2.89,2.89,0,0,1-.43.31,2.34,2.34,0,0,0-.78,3.56c.52.91,1.13,1.82,1.69,2.73a9.19,9.19,0,0,1,1.22,2.91,5.54,5.54,0,0,1-1.48,5.51,13.44,13.44,0,0,1-5,3.17,3.48,3.48,0,0,1-2.21.13A2.66,2.66,0,0,1,221.15,153.54Z"/><path class="cls-3" d="M244.46,146.38a1.4,1.4,0,0,1,1.78.87,1.92,1.92,0,0,1-.56,2.17,6.66,6.66,0,0,1-4,1.91c-6.21.48-9.73-4.73-8.12-10.9a9.63,9.63,0,0,1,6.38-7.2,3.91,3.91,0,0,1,1.39-.22,4,4,0,0,1,4.08,4,6.34,6.34,0,0,1-2,4.69,10.28,10.28,0,0,1-4,2.34c-.87.31-.95.61-.48,1.3.87,1.22,2.39,1.22,3.74,1.22A8.63,8.63,0,0,0,244.46,146.38Zm-3.6-7.73a.45.45,0,0,0,0-.56c-.13-.18-.3-.13-.52,0a2.54,2.54,0,0,0-1.39,1.64A2.22,2.22,0,0,0,240.86,138.65Z"/><path class="cls-3" d="M252.92,137.78a15.37,15.37,0,0,1,2.39-3.64c1.82-2,4-1.87,5.34.39a7.87,7.87,0,0,1,.87,3.12,58.42,58.42,0,0,1-.39,11.68,5.86,5.86,0,0,1-.26,1.22,2,2,0,0,1-1.74,1.47,1.74,1.74,0,0,1-1.69-1.34,8.68,8.68,0,0,1-.26-2.39c.08-2,.08-4.08.3-6.12.09-1.3,0-2.65,0-3.95,0-.22,0-.48-.3-.61-.48.17-.57.65-.78,1a37.38,37.38,0,0,0-2.65,6.64l-1.3,4a10.64,10.64,0,0,1-.44,1.13,1.9,1.9,0,0,1-1.91,1.26,1.68,1.68,0,0,1-1.65-1.39,23.84,23.84,0,0,1-.48-3c-.34-3.91-.3-7.86-.26-11.81a7,7,0,0,1,.09-.91,1.83,1.83,0,0,1,1.17-1.39,1.63,1.63,0,0,1,1.83.48,3.2,3.2,0,0,1,.78,1.73c.08,1,.21,2,.34,3,0,.22,0,.44.26.61C252.62,138.7,252.71,138.22,252.92,137.78Z"/><path class="cls-3" d="M272.33,147.33a8.92,8.92,0,0,1-3.22,3c-2.25,1.26-4.25.69-5.07-1.43a9.64,9.64,0,0,1,.21-6.86,19.82,19.82,0,0,1,3.13-5.82,8.64,8.64,0,0,1,4.08-3,3.82,3.82,0,0,1,3.51.31,2.68,2.68,0,0,0,1.44.43,1.87,1.87,0,0,1,2.17,1.65,8.32,8.32,0,0,1,.13,2.08,20.77,20.77,0,0,0,.09,3.78c.21,2.34,0,4.73.08,7.08,0,.21,0,.43,0,.65a2.07,2.07,0,0,1-1.3,1.86,1.81,1.81,0,0,1-2.17-.43,2.52,2.52,0,0,1-.66-1.43c-.17-.87-.26-1.7-.43-2.56-.09-.44,0-1-.56-1.35C273.24,146,272.8,146.68,272.33,147.33Zm-3.35-.91c2.3-2.43,3.3-5.34,4.48-8.2.17-.52-.31-.78-.83-.48a4.16,4.16,0,0,0-1.21,1.26,22.77,22.77,0,0,0-3,6.55,1.12,1.12,0,0,0,.09,1.09A1.88,1.88,0,0,0,269,146.42Z"/><path class="cls-3" d="M291,146.94a15.17,15.17,0,0,1-2,3.09c-2.22,2.43-5.12,2.17-6.9-.57a7.36,7.36,0,0,1-1.18-5.34,12.86,12.86,0,0,1,3.87-7.73,7.85,7.85,0,0,1,6.29-2.3c1.17.09,1.26.09,1.39-1.13a63.7,63.7,0,0,1,1.43-7.46,8.37,8.37,0,0,1,.7-1.87,1.89,1.89,0,0,1,2-1,2.1,2.1,0,0,1,1.43,1.87,8,8,0,0,1-.09,1,76.85,76.85,0,0,0-1.21,16.4c0,3.61-.13,6.43.08,8.51.13,1.13.13,1.7-.56,2.09a2.12,2.12,0,0,1-2.56-.52,5,5,0,0,1-.87-2,22.68,22.68,0,0,1-.52-3,1.2,1.2,0,0,0-.44-1.09C291.3,146,291.17,146.51,291,146.94Zm-5.12.52c.52.18.78-.47,1.08-.82l.48-.65a36.1,36.1,0,0,0,2.91-6.08l.13-.39c.13-.61-.05-.78-.7-.61a3,3,0,0,0-1.34.78,11.4,11.4,0,0,0-3,6.34C285.44,146.55,285.22,147.29,285.83,147.46Z"/><path class="cls-3" d="M301.8,135.92a11.53,11.53,0,0,1,3.65-2.65,1.54,1.54,0,0,1,1.39,0,5.64,5.64,0,0,1,1.91,1.21,19.37,19.37,0,0,1,3.16,4.08c1.57,2.74,1,7-1.25,9.77a8.09,8.09,0,0,1-4,2.69c-4.17,1.3-7.47-1.35-7.95-5.43a9,9,0,0,1,0-1A14.42,14.42,0,0,1,301.8,135.92Zm1.82,9.42c.22,1.08.7,1.3,1.7.82a3.36,3.36,0,0,0,1.6-1.86,6.38,6.38,0,0,0-.56-5.73c-.35-.66-.65-.66-1,0a18.11,18.11,0,0,0-1.78,6A5.43,5.43,0,0,0,303.62,145.34Z"/><path class="cls-3" d="M322.25,135.22a13.69,13.69,0,0,1,2.43-2,2.88,2.88,0,0,1,2.51-.56,1.57,1.57,0,0,1,1.22,1.26,1.45,1.45,0,0,1-.69,1.47,23.12,23.12,0,0,0-7.6,11,14.49,14.49,0,0,0-.78,3.08c-.18,1-.65,1.43-1.39,1.52a1.76,1.76,0,0,1-1.91-1.35,21.34,21.34,0,0,1-1-6.42q0-3.26.26-6.51c.09-1.43.48-3.21,2.22-3.3a2.19,2.19,0,0,1,2,1.22c.43.69.3,1.56.82,2.47Z"/><path class="cls-3" d="M334.62,147.33a8.92,8.92,0,0,1-3.22,3c-2.25,1.26-4.25.69-5.07-1.43a9.64,9.64,0,0,1,.21-6.86,19.82,19.82,0,0,1,3.13-5.82,8.64,8.64,0,0,1,4.08-3,3.84,3.84,0,0,1,3.52.31,2.62,2.62,0,0,0,1.43.43,1.87,1.87,0,0,1,2.17,1.65,8.32,8.32,0,0,1,.13,2.08,20.77,20.77,0,0,0,.09,3.78c.21,2.34,0,4.73.08,7.08,0,.21,0,.43,0,.65a2.07,2.07,0,0,1-1.3,1.86,1.81,1.81,0,0,1-2.17-.43,2.59,2.59,0,0,1-.66-1.43c-.17-.87-.26-1.7-.43-2.56-.09-.44,0-1-.56-1.35C335.53,146,335.09,146.68,334.62,147.33Zm-3.35-.91c2.3-2.43,3.3-5.34,4.48-8.2.17-.52-.31-.78-.83-.48a4.16,4.16,0,0,0-1.21,1.26,22.77,22.77,0,0,0-3,6.55,1.12,1.12,0,0,0,.09,1.09A1.88,1.88,0,0,0,331.27,146.42Z"/><path class="cls-3" d="M361.79,148.46a7,7,0,0,1-2,1.87c-1.95,1.22-3.86.87-4.95-.82a5.39,5.39,0,0,1-.87-2.83,20,20,0,0,1,2.87-9.5,7,7,0,0,1,3.3-2.78,3,3,0,0,1,2.56-.09,1.67,1.67,0,0,0,1.3.09,1.63,1.63,0,0,1,2.08.95,4.73,4.73,0,0,1,.35,1.39,111.56,111.56,0,0,1,.87,11.46,19.41,19.41,0,0,1-1.65,7.77,9.29,9.29,0,0,1-10.42,5.65,9.54,9.54,0,0,1-5-2.61,2.26,2.26,0,0,1-.83-1.78,1.8,1.8,0,0,1,1-1.6,1.36,1.36,0,0,1,1.61.08,11.51,11.51,0,0,0,4.29,1.83,4.46,4.46,0,0,0,4.65-1.57,10.15,10.15,0,0,0,2.26-4.12c.34-1.35.65-4.17.08-5.3A10.34,10.34,0,0,0,361.79,148.46Zm.22-9.37a.74.74,0,0,0-.65-.83c-.44-.09-.65.35-.83.65a24.53,24.53,0,0,0-2.39,7,1.48,1.48,0,0,0,.35,1.38C360.36,146.25,361.57,141.34,362,139.09Z"/><path class="cls-3" d="M375.59,135.22a14.05,14.05,0,0,1,2.43-2,2.9,2.9,0,0,1,2.52-.56,1.58,1.58,0,0,1,1.22,1.26,1.46,1.46,0,0,1-.7,1.47,23.1,23.1,0,0,0-7.59,11,14.51,14.51,0,0,0-.79,3.08c-.17,1-.65,1.43-1.38,1.52a1.76,1.76,0,0,1-1.91-1.35,21,21,0,0,1-1-6.42q0-3.26.26-6.51c.09-1.43.48-3.21,2.21-3.3a2.2,2.2,0,0,1,2.05,1.22c.43.69.3,1.56.82,2.47Z"/><path class="cls-3" d="M388,147.33a8.92,8.92,0,0,1-3.22,3c-2.25,1.26-4.25.69-5.08-1.43a9.7,9.7,0,0,1,.22-6.86,19.82,19.82,0,0,1,3.13-5.82,8.59,8.59,0,0,1,4.08-3,3.82,3.82,0,0,1,3.51.31,2.68,2.68,0,0,0,1.44.43,1.87,1.87,0,0,1,2.17,1.65,8.32,8.32,0,0,1,.13,2.08,21.7,21.7,0,0,0,.08,3.78c.22,2.34,0,4.73.09,7.08,0,.21,0,.43,0,.65a2.07,2.07,0,0,1-1.3,1.86,1.83,1.83,0,0,1-2.18-.43,2.58,2.58,0,0,1-.65-1.43c-.17-.87-.26-1.7-.43-2.56-.09-.44,0-1-.57-1.35C388.88,146,388.44,146.68,388,147.33Zm-3.35-.91c2.3-2.43,3.3-5.34,4.47-8.2.18-.52-.3-.78-.82-.48a4.31,4.31,0,0,0-1.22,1.26,23,23,0,0,0-2.95,6.55,1.12,1.12,0,0,0,.09,1.09A1.88,1.88,0,0,0,384.62,146.42Z"/><path class="cls-3" d="M398.9,140.82c0-.65-.17-1.13-.82-1.21a.15.15,0,0,0-.13-.05c-1.22-.52-1.74-1.21-1.69-2.3a2,2,0,0,1,1.73-2c1.09-.26,1.39-.95,1.57-2a18,18,0,0,1,2.16-6.86,4.24,4.24,0,0,1,2.39-2.17,1.92,1.92,0,0,1,2.17.78,2,2,0,0,1,.05,2.35,18.38,18.38,0,0,0-1.74,6.47c0,.73.22,1.08.83,1.17l1.43.35a3.15,3.15,0,0,1,1.13.56,2.26,2.26,0,0,1,1,1.95,2.21,2.21,0,0,1-1.43,1.83,7.29,7.29,0,0,1-2.17.34c-1.26.18-1.35.26-1.39,1.65-.13,2.09.17,4.17.21,6.26a40.14,40.14,0,0,1-.3,6c-.17,1.39-.87,2.17-1.91,2.17s-1.82-.65-2.13-2a38.22,38.22,0,0,1-.95-6.29C398.86,145.47,398.9,143.12,398.9,140.82Z"/><path class="cls-3" d="M413.62,130.88A3.73,3.73,0,0,1,410,127a3.89,3.89,0,0,1,3.77-3.69c1.74,0,3.3,1.91,3.3,4A3.47,3.47,0,0,1,413.62,130.88Zm2,15.15c0,1-.05,2-.09,2.95a2,2,0,0,1-1.95,2,2.48,2.48,0,0,1-1.48-.6,3.19,3.19,0,0,1-1-1.74c-.73-4-1.25-8-.26-12a7.16,7.16,0,0,1,.83-2.26,2.19,2.19,0,0,1,2.17-1.21,2.3,2.3,0,0,1,1.91,1.82,14,14,0,0,1,.22,3.82C416.05,141.3,415.7,143.64,415.62,146Z"/><path class="cls-3" d="M419.61,136.09a5.94,5.94,0,0,1,4.77-3.13,2.23,2.23,0,0,1,2.09,1.31,2,2,0,0,1-.7,2.78c-1.56.82-2.91,3.47-3.08,5.81-.3,2.91,1.78,4.91,4.3,3.65a1.24,1.24,0,0,1,1.69.61,1.75,1.75,0,0,1-.09,2.08,3.83,3.83,0,0,1-2.95,2,10.15,10.15,0,0,1-4.29-.34c-2.05-.61-3.09-2.3-3.48-4.56A14.94,14.94,0,0,1,419.61,136.09Z"/><path class="cls-3" d="M439.18,147.33a8.81,8.81,0,0,1-3.21,3c-2.25,1.26-4.25.69-5.08-1.43a9.7,9.7,0,0,1,.22-6.86,19.82,19.82,0,0,1,3.13-5.82,8.59,8.59,0,0,1,4.08-3,3.82,3.82,0,0,1,3.51.31,2.68,2.68,0,0,0,1.44.43,1.88,1.88,0,0,1,2.17,1.65,8.32,8.32,0,0,1,.13,2.08,21.7,21.7,0,0,0,.08,3.78c.22,2.34,0,4.73.09,7.08,0,.21,0,.43,0,.65a2.07,2.07,0,0,1-1.31,1.86,1.82,1.82,0,0,1-2.17-.43,2.58,2.58,0,0,1-.65-1.43c-.17-.87-.26-1.7-.43-2.56-.09-.44,0-1-.57-1.35C440.1,146,439.66,146.68,439.18,147.33Zm-3.34-.91c2.3-2.43,3.3-5.34,4.47-8.2.18-.52-.3-.78-.82-.48a4.31,4.31,0,0,0-1.22,1.26,23,23,0,0,0-2.95,6.55,1.07,1.07,0,0,0,.09,1.09A1.88,1.88,0,0,0,435.84,146.42Z"/><path class="cls-3" d="M471.7,155.63c-.74,3-2.95,5.73-6.21,5.73a7.24,7.24,0,0,1-4.08-1.57,2.39,2.39,0,0,1-.91-1.08,1.5,1.5,0,0,1,.13-1.74,1.36,1.36,0,0,1,1.6-.43,5.56,5.56,0,0,0,2.09.22,2.75,2.75,0,0,0,2.52-1.74,13.71,13.71,0,0,0,1.21-5.43c0-.61-.26-.65-.74-.3l-.6.56a4.79,4.79,0,0,1-3,1.17c-3.78,0-5.12-5.16-5.12-8.16,0-1.65.69-7.55,2-8.81a2,2,0,0,1,2-.69,1.6,1.6,0,0,1,1.3,1.47,3.76,3.76,0,0,1,.05,1.56,24.5,24.5,0,0,0-.87,6.52,14.53,14.53,0,0,0,.3,3.17c.09.43.39,1,1,1,2.69.13,3.69-10.76,3.78-11.93a1.82,1.82,0,0,1,1.91-1.78,2,2,0,0,1,1.91,1.86c.21,1.35.39,2.78.52,4.17C472.74,143.25,472.74,151.81,471.7,155.63Z"/><path class="cls-3" d="M71.65,199a14.39,14.39,0,0,1-2,3.09c-2.21,2.43-5.12,2.17-6.9-.57a7.4,7.4,0,0,1-1.17-5.34,12.85,12.85,0,0,1,3.86-7.73,7.87,7.87,0,0,1,6.3-2.3c1.17.09,1.26.09,1.39-1.13a61.7,61.7,0,0,1,1.43-7.46,8.33,8.33,0,0,1,.69-1.87,1.9,1.9,0,0,1,2-1,2.07,2.07,0,0,1,1.43,1.87,7.93,7.93,0,0,1-.08,1A76.85,76.85,0,0,0,77.34,194c0,3.61-.13,6.43.09,8.51.13,1.13.13,1.7-.57,2.09A2.12,2.12,0,0,1,74.3,204a5.28,5.28,0,0,1-.87-2,24.41,24.41,0,0,1-.52-3,1.19,1.19,0,0,0-.43-1.09C72,198.12,71.87,198.6,71.65,199Zm-5.12.52c.52.18.78-.47,1.09-.82l.48-.65A35.3,35.3,0,0,0,71,192l.13-.39c.13-.61,0-.78-.69-.61a3.09,3.09,0,0,0-1.35.78,11.39,11.39,0,0,0-3,6.34C66.14,198.64,65.92,199.38,66.53,199.55Z"/><path class="cls-3" d="M90.58,198.47a1.4,1.4,0,0,1,1.78.87,1.92,1.92,0,0,1-.56,2.17,6.66,6.66,0,0,1-4,1.91c-6.21.48-9.73-4.73-8.12-10.9a9.63,9.63,0,0,1,6.38-7.2,3.91,3.91,0,0,1,1.39-.22,4,4,0,0,1,4.08,4,6.3,6.3,0,0,1-2,4.69,10.28,10.28,0,0,1-4,2.34c-.87.31-1,.61-.48,1.3.87,1.22,2.39,1.22,3.74,1.22A8.63,8.63,0,0,0,90.58,198.47ZM87,190.74a.45.45,0,0,0,0-.56c-.13-.18-.3-.13-.52-.05a2.59,2.59,0,0,0-1.39,1.65A2.21,2.21,0,0,0,87,190.74Z"/><path class="cls-3" d="M93.79,205.63a2.24,2.24,0,0,1,.48-3.77A10.35,10.35,0,0,0,98,198.47a2.1,2.1,0,0,0,.22-2.13,13.62,13.62,0,0,0-1.39-2.43,8.36,8.36,0,0,1-1.44-3.38,5.3,5.3,0,0,1,4.65-6.08,2.55,2.55,0,0,1,2.69,1.3,1.6,1.6,0,0,1-.43,2.21,3,3,0,0,1-.44.31,2.34,2.34,0,0,0-.78,3.56c.52.91,1.13,1.82,1.69,2.73a9,9,0,0,1,1.22,2.91,5.5,5.5,0,0,1-1.48,5.51,13.4,13.4,0,0,1-5,3.17,3.51,3.51,0,0,1-2.22.13A2.66,2.66,0,0,1,93.79,205.63Z"/><path class="cls-3" d="M115.24,199.42a8.92,8.92,0,0,1-3.22,3c-2.25,1.26-4.25.69-5.08-1.43a9.7,9.7,0,0,1,.22-6.86,19.69,19.69,0,0,1,3.13-5.82,8.64,8.64,0,0,1,4.08-3,3.82,3.82,0,0,1,3.51.31,2.68,2.68,0,0,0,1.44.43,1.87,1.87,0,0,1,2.17,1.65,8.32,8.32,0,0,1,.13,2.08,21.7,21.7,0,0,0,.08,3.78c.22,2.34,0,4.73.09,7.08,0,.21,0,.43,0,.65a2.07,2.07,0,0,1-1.3,1.86,1.83,1.83,0,0,1-2.18-.43,2.58,2.58,0,0,1-.65-1.43c-.17-.87-.26-1.7-.43-2.56-.09-.44,0-1-.56-1.35C116.15,198.08,115.71,198.77,115.24,199.42Zm-3.35-.91c2.3-2.43,3.3-5.34,4.47-8.2.18-.52-.3-.78-.82-.48a4.19,4.19,0,0,0-1.22,1.26,23,23,0,0,0-2.95,6.55,1.12,1.12,0,0,0,.09,1.09A1.88,1.88,0,0,0,111.89,198.51Z"/><path class="cls-3" d="M131.38,187.31a14.05,14.05,0,0,1,2.43-2,2.9,2.9,0,0,1,2.52-.56,1.58,1.58,0,0,1,1.22,1.26,1.46,1.46,0,0,1-.7,1.47,23.1,23.1,0,0,0-7.59,11,14.51,14.51,0,0,0-.79,3.08c-.17,1-.65,1.43-1.38,1.52a1.76,1.76,0,0,1-1.91-1.35,21,21,0,0,1-1-6.42q0-3.26.26-6.51c.09-1.43.48-3.21,2.21-3.3a2.2,2.2,0,0,1,2.05,1.22c.43.69.3,1.56.82,2.47Z"/><path class="cls-3" d="M145.45,187.31a14.05,14.05,0,0,1,2.43-2,2.9,2.9,0,0,1,2.52-.56,1.57,1.57,0,0,1,1.21,1.26,1.45,1.45,0,0,1-.69,1.47,23.12,23.12,0,0,0-7.6,11,14.49,14.49,0,0,0-.78,3.08c-.17,1-.65,1.43-1.39,1.52a1.76,1.76,0,0,1-1.91-1.35,21.33,21.33,0,0,1-1-6.42c0-2.17.08-4.34.26-6.51.08-1.43.47-3.21,2.21-3.3a2.19,2.19,0,0,1,2,1.22c.43.69.3,1.56.82,2.47Z"/><path class="cls-3" d="M152.65,188a11.64,11.64,0,0,1,3.65-2.65,1.54,1.54,0,0,1,1.39,0,5.54,5.54,0,0,1,1.91,1.21,19.75,19.75,0,0,1,3.17,4.08c1.56,2.74.95,7-1.26,9.77a8.09,8.09,0,0,1-4,2.69c-4.17,1.3-7.47-1.35-7.94-5.43a7.22,7.22,0,0,1,0-1A14.34,14.34,0,0,1,152.65,188Zm1.83,9.42c.21,1.08.69,1.3,1.69.82a3.36,3.36,0,0,0,1.6-1.86,6.35,6.35,0,0,0-.56-5.73c-.35-.66-.65-.66-1,0a18.11,18.11,0,0,0-1.78,6A4.36,4.36,0,0,0,154.48,197.43Z"/><path class="cls-3" d="M170.58,200.29a1.29,1.29,0,0,1,0,.39c0,1.39-.56,2.22-1.65,2.48a2.26,2.26,0,0,1-2.47-1.52,13.66,13.66,0,0,1-.65-3.21,90,90,0,0,1-.44-18.06,63.89,63.89,0,0,1,1.05-8.16c.13-.53.26-1.09.43-1.57a2.34,2.34,0,0,1,2.3-1.56,2.17,2.17,0,0,1,1.91,1.74,6.06,6.06,0,0,1,.17,2.51c-.3,3.91-.56,7.86-.65,11.81C170.54,190.13,170.32,195.3,170.58,200.29Z"/><path class="cls-3" d="M178.7,200.29a1.29,1.29,0,0,1,0,.39c0,1.39-.56,2.22-1.65,2.48a2.25,2.25,0,0,1-2.47-1.52,13.66,13.66,0,0,1-.65-3.21,89.28,89.28,0,0,1-.44-18.06,65.71,65.71,0,0,1,1-8.16,14.38,14.38,0,0,1,.44-1.57,2.34,2.34,0,0,1,2.3-1.56,2.17,2.17,0,0,1,1.91,1.74,6.06,6.06,0,0,1,.17,2.51c-.3,3.91-.56,7.86-.65,11.81C178.65,190.13,178.44,195.3,178.7,200.29Z"/><path class="cls-3" d="M188.9,199.42a9,9,0,0,1-3.21,3c-2.26,1.26-4.26.69-5.08-1.43a9.64,9.64,0,0,1,.21-6.86,19.93,19.93,0,0,1,3.13-5.82,8.68,8.68,0,0,1,4.08-3,3.84,3.84,0,0,1,3.52.31A2.65,2.65,0,0,0,193,186a1.87,1.87,0,0,1,2.17,1.65,8.32,8.32,0,0,1,.13,2.08,21.71,21.71,0,0,0,.09,3.78c.21,2.34,0,4.73.08,7.08,0,.21,0,.43,0,.65a2.07,2.07,0,0,1-1.3,1.86,1.81,1.81,0,0,1-2.17-.43,2.51,2.51,0,0,1-.65-1.43c-.18-.87-.26-1.7-.44-2.56-.08-.44,0-1-.56-1.35C189.81,198.08,189.38,198.77,188.9,199.42Zm-3.34-.91c2.3-2.43,3.3-5.34,4.47-8.2.17-.52-.31-.78-.83-.48a4,4,0,0,0-1.21,1.26,22.74,22.74,0,0,0-3,6.55,1.1,1.1,0,0,0,.08,1.09A2,2,0,0,0,185.56,198.51Z"/><path class="cls-3" d="M207.52,199a14.39,14.39,0,0,1-2,3.09c-2.21,2.43-5.12,2.17-6.9-.57a7.31,7.31,0,0,1-1.17-5.34,12.85,12.85,0,0,1,3.86-7.73,7.86,7.86,0,0,1,6.29-2.3c1.18.09,1.26.09,1.39-1.13a61.74,61.74,0,0,1,1.44-7.46,7.87,7.87,0,0,1,.69-1.87,1.9,1.9,0,0,1,2-1,2.07,2.07,0,0,1,1.43,1.87,6.35,6.35,0,0,1-.09,1,76.85,76.85,0,0,0-1.21,16.4c0,3.61-.13,6.43.08,8.51.14,1.13.14,1.7-.56,2.09a2.12,2.12,0,0,1-2.56-.52,5,5,0,0,1-.87-2,22.68,22.68,0,0,1-.52-3,1.19,1.19,0,0,0-.43-1.09C207.87,198.12,207.74,198.6,207.52,199Zm-5.12.52c.52.18.78-.47,1.08-.82l.48-.65a34.62,34.62,0,0,0,2.91-6.08l.13-.39c.13-.61,0-.78-.69-.61a3,3,0,0,0-1.35.78,11.4,11.4,0,0,0-3,6.34C202,198.64,201.79,199.38,202.4,199.55Z"/><path class="cls-3" d="M218.37,188a11.64,11.64,0,0,1,3.65-2.65,1.54,1.54,0,0,1,1.39,0,5.54,5.54,0,0,1,1.91,1.21,19.75,19.75,0,0,1,3.17,4.08c1.56,2.74.95,7-1.26,9.77a8.09,8.09,0,0,1-4,2.69c-4.17,1.3-7.47-1.35-7.94-5.43a7.22,7.22,0,0,1,0-1A14.34,14.34,0,0,1,218.37,188Zm1.83,9.42c.21,1.08.69,1.3,1.69.82a3.36,3.36,0,0,0,1.6-1.86,6.35,6.35,0,0,0-.56-5.73c-.35-.66-.65-.66-1,0a18.11,18.11,0,0,0-1.78,6A4.36,4.36,0,0,0,220.2,197.43Z"/><path class="cls-3" d="M238.82,187.31a14.05,14.05,0,0,1,2.43-2,2.9,2.9,0,0,1,2.52-.56A1.57,1.57,0,0,1,245,186a1.45,1.45,0,0,1-.69,1.47,23.12,23.12,0,0,0-7.6,11,14.49,14.49,0,0,0-.78,3.08c-.17,1-.65,1.43-1.39,1.52a1.76,1.76,0,0,1-1.91-1.35,21.34,21.34,0,0,1-1-6.42q0-3.26.27-6.51c.08-1.43.47-3.21,2.21-3.3a2.19,2.19,0,0,1,2,1.22c.43.69.3,1.56.82,2.47Z"/><path class="cls-3" d="M251.19,199.42a9,9,0,0,1-3.21,3c-2.26,1.26-4.26.69-5.08-1.43a9.64,9.64,0,0,1,.21-6.86,19.93,19.93,0,0,1,3.13-5.82,8.68,8.68,0,0,1,4.08-3,3.84,3.84,0,0,1,3.52.31,2.65,2.65,0,0,0,1.43.43,1.87,1.87,0,0,1,2.17,1.65,8.32,8.32,0,0,1,.13,2.08,21.71,21.71,0,0,0,.09,3.78c.21,2.34,0,4.73.08,7.08,0,.21,0,.43,0,.65a2.07,2.07,0,0,1-1.3,1.86,1.81,1.81,0,0,1-2.17-.43,2.51,2.51,0,0,1-.65-1.43c-.18-.87-.26-1.7-.44-2.56-.08-.44,0-1-.56-1.35C252.1,198.08,251.67,198.77,251.19,199.42Zm-3.34-.91c2.3-2.43,3.3-5.34,4.47-8.2.17-.52-.31-.78-.83-.48a4,4,0,0,0-1.21,1.26,22.74,22.74,0,0,0-2.95,6.55,1.1,1.1,0,0,0,.08,1.09A2,2,0,0,0,247.85,198.51Z"/><path class="cls-3" d="M273,192.91c0-.65-.17-1.13-.83-1.21a.14.14,0,0,0-.13,0,2.26,2.26,0,0,1-1.69-2.3,2,2,0,0,1,1.74-2c1.08-.26,1.39-.95,1.56-2a18,18,0,0,1,2.17-6.86,4.24,4.24,0,0,1,2.39-2.17,1.93,1.93,0,0,1,2.17.78,2,2,0,0,1,0,2.35,18.37,18.37,0,0,0-1.73,6.47c-.05.73.21,1.08.82,1.17l1.43.35a3.07,3.07,0,0,1,1.13.56,2.22,2.22,0,0,1,1,2,2.17,2.17,0,0,1-1.43,1.83,7.19,7.19,0,0,1-2.17.34c-1.26.18-1.34.26-1.39,1.65-.13,2.09.18,4.17.22,6.26a40.14,40.14,0,0,1-.3,6c-.18,1.39-.87,2.17-1.91,2.17s-1.83-.65-2.13-2a38.24,38.24,0,0,1-1-6.29C272.94,197.56,273,195.21,273,192.91Z"/><path class="cls-3" d="M291.43,187.31a14.05,14.05,0,0,1,2.43-2,2.9,2.9,0,0,1,2.52-.56,1.57,1.57,0,0,1,1.21,1.26,1.45,1.45,0,0,1-.69,1.47,23.12,23.12,0,0,0-7.6,11,14.49,14.49,0,0,0-.78,3.08c-.17,1-.65,1.43-1.39,1.52a1.76,1.76,0,0,1-1.91-1.35,21.33,21.33,0,0,1-1-6.42c0-2.17.08-4.34.26-6.51.08-1.43.47-3.21,2.21-3.3a2.19,2.19,0,0,1,2,1.22c.43.69.3,1.56.82,2.47Z"/><path class="cls-3" d="M298.63,188a11.64,11.64,0,0,1,3.65-2.65,1.54,1.54,0,0,1,1.39,0,5.45,5.45,0,0,1,1.91,1.21,19.41,19.41,0,0,1,3.17,4.08c1.56,2.74.95,7-1.26,9.77a8.09,8.09,0,0,1-4,2.69c-4.16,1.3-7.46-1.35-7.94-5.43a9,9,0,0,1,0-1A14.41,14.41,0,0,1,298.63,188Zm1.83,9.42c.21,1.08.69,1.3,1.69.82a3.42,3.42,0,0,0,1.61-1.86,6.39,6.39,0,0,0-.57-5.73c-.34-.66-.65-.66-1,0a18.11,18.11,0,0,0-1.78,6A4.36,4.36,0,0,0,300.46,197.43Z"/><path class="cls-3" d="M316.35,189.87a15.33,15.33,0,0,1,2.38-3.64c1.83-2,4-1.87,5.34.39a7.71,7.71,0,0,1,.87,3.12,58.42,58.42,0,0,1-.39,11.68,5.29,5.29,0,0,1-.26,1.22,2,2,0,0,1-1.74,1.47,1.75,1.75,0,0,1-1.69-1.34,8.68,8.68,0,0,1-.26-2.39c.09-2,.09-4.08.3-6.12a37.18,37.18,0,0,0,0-3.95c0-.22,0-.48-.3-.61-.48.17-.57.65-.78,1a38.15,38.15,0,0,0-2.65,6.64l-1.3,4a7.58,7.58,0,0,1-.44,1.13,1.9,1.9,0,0,1-1.91,1.26,1.68,1.68,0,0,1-1.65-1.39,23.8,23.8,0,0,1-.47-3,116.13,116.13,0,0,1-.26-11.81,7,7,0,0,1,.08-.91,1.85,1.85,0,0,1,1.17-1.39,1.63,1.63,0,0,1,1.83.48,3.2,3.2,0,0,1,.78,1.73c.09,1,.22,2,.35,3,0,.22-.05.44.26.61C316,190.79,316.13,190.31,316.35,189.87Z"/><path class="cls-3" d="M327.41,178.46c1-.31,1.09-.31,1.18-1.35.21-1.74.34-3.47.52-5.21a16.2,16.2,0,0,1,.39-2.13,2.07,2.07,0,0,1,1.82-1.78,1.75,1.75,0,0,1,1.78,1.39,8.54,8.54,0,0,1,.3,2.57c0,1.34,0,2.69,0,4s0,1.21,1.13,1.13c.61,0,1.17,0,1.74,0a1.66,1.66,0,0,1,1.65,1.39,1.94,1.94,0,0,1-1.35,1.87,18.28,18.28,0,0,1-2.21.69c-1.09.4-1.18.44-1.22,1.52-.13,1.91-.22,3.82-.22,5.69,0,2.39.05,4.78-.17,7.16-.17,2-.13,4-.26,6a2,2,0,0,1-1.95,2c-1.74,0-2-1.78-2.09-3.12-.26-2.44-.52-4.91-.65-7.34a61.22,61.22,0,0,1,.13-7.42,7.79,7.79,0,0,0,.09-1c0-.82,0-1.13-.39-1.13a5.57,5.57,0,0,0-.87.18,5.66,5.66,0,0,1-2,.26,2,2,0,0,1-1.82-2.26C323.2,179.67,325.85,178.85,327.41,178.46Z"/><path class="cls-3" d="M357.32,198.47a1.4,1.4,0,0,1,1.78.87,1.9,1.9,0,0,1-.56,2.17,6.61,6.61,0,0,1-4,1.91c-6.21.48-9.72-4.73-8.12-10.9a9.63,9.63,0,0,1,6.38-7.2,3.91,3.91,0,0,1,1.39-.22,4,4,0,0,1,4.08,4,6.27,6.27,0,0,1-2,4.69,10.21,10.21,0,0,1-3.95,2.34c-.87.31-.95.61-.47,1.3.86,1.22,2.38,1.22,3.73,1.22A8.58,8.58,0,0,0,357.32,198.47Zm-3.6-7.73a.45.45,0,0,0,0-.56c-.13-.18-.3-.13-.52-.05a2.59,2.59,0,0,0-1.39,1.65A2.21,2.21,0,0,0,353.72,190.74Z"/><path class="cls-3" d="M365.79,189.87a15.33,15.33,0,0,1,2.38-3.64c1.83-2,4-1.87,5.34.39a7.71,7.71,0,0,1,.87,3.12,58.42,58.42,0,0,1-.39,11.68,5.29,5.29,0,0,1-.26,1.22,2,2,0,0,1-1.74,1.47,1.75,1.75,0,0,1-1.69-1.34,8.68,8.68,0,0,1-.26-2.39c.09-2,.09-4.08.3-6.12a37.18,37.18,0,0,0,0-3.95c0-.22,0-.48-.3-.61-.48.17-.57.65-.78,1a38.15,38.15,0,0,0-2.65,6.64l-1.3,4a7.58,7.58,0,0,1-.44,1.13,1.89,1.89,0,0,1-1.91,1.26,1.68,1.68,0,0,1-1.65-1.39,23.8,23.8,0,0,1-.47-3,116.13,116.13,0,0,1-.26-11.81,7,7,0,0,1,.08-.91,1.85,1.85,0,0,1,1.17-1.39,1.63,1.63,0,0,1,1.83.48,3.2,3.2,0,0,1,.78,1.73c.09,1,.22,2,.35,3,0,.22-.05.44.26.61C365.48,190.79,365.57,190.31,365.79,189.87Z"/><path class="cls-3" d="M386.8,199a15.17,15.17,0,0,1-2,3.09c-2.22,2.43-5.13,2.17-6.91-.57a7.4,7.4,0,0,1-1.17-5.34,12.85,12.85,0,0,1,3.86-7.73,7.87,7.87,0,0,1,6.3-2.3c1.17.09,1.26.09,1.39-1.13a63.7,63.7,0,0,1,1.43-7.46,8.33,8.33,0,0,1,.69-1.87,1.9,1.9,0,0,1,2-1,2.07,2.07,0,0,1,1.43,1.87,7.93,7.93,0,0,1-.08,1,76.85,76.85,0,0,0-1.22,16.4c0,3.61-.13,6.43.09,8.51.13,1.13.13,1.7-.57,2.09a2.12,2.12,0,0,1-2.56-.52,5.12,5.12,0,0,1-.86-2,22.56,22.56,0,0,1-.53-3,1.19,1.19,0,0,0-.43-1.09C387.14,198.12,387,198.6,386.8,199Zm-5.13.52c.52.18.78-.47,1.09-.82l.48-.65a35.3,35.3,0,0,0,2.9-6.08l.13-.39c.13-.61,0-.78-.69-.61a3.09,3.09,0,0,0-1.35.78,11.39,11.39,0,0,0-3,6.34C381.28,198.64,381.06,199.38,381.67,199.55Z"/><path class="cls-3" d="M395.52,201.51a2.4,2.4,0,0,1,.69-2.61,1.9,1.9,0,0,1,2.74,0,4.73,4.73,0,0,1,.87,1,2.05,2.05,0,0,1,0,2.22,1.84,1.84,0,0,1-1.82,1A2.57,2.57,0,0,1,395.52,201.51Z"/><path class="cls-3" d="M258.2,128.8a.15.15,0,0,1,.09,0c.34,0,.54.23.6.68a1.12,1.12,0,0,1-.37,1,2.27,2.27,0,0,1-.78.27,12.88,12.88,0,0,1-4.38.17,9.36,9.36,0,0,1-2-.43,1.81,1.81,0,0,1-.37-.18,1.06,1.06,0,0,1-.38-.95.81.81,0,0,1,1-.86c.94.13,1.9.23,2.86.27A30.11,30.11,0,0,0,258.2,128.8Z"/><path class="cls-3" d="M393.73,127.06a.09.09,0,0,1,0-.06c.19-.16.42-.12.73.14a1.15,1.15,0,0,1,.45.85,1.35,1.35,0,0,1-.23.56,7.35,7.35,0,0,1-2.15,2.29,5.83,5.83,0,0,1-1.28.7c-.1,0-.21.06-.31.07a1.17,1.17,0,0,1-.79-.43c-.25-.3-.33-.54-.27-.72a.51.51,0,0,1,.27-.35,19.71,19.71,0,0,0,1.64-1.25A17,17,0,0,0,393.73,127.06Z"/></g></g></svg>